<?xml version="1.0" standalone="no"?>
<!DOCTYPE svg PUBLIC "-//W3C//DTD SVG 20010904//EN"
 "http://www.w3.org/TR/2001/REC-SVG-20010904/DTD/svg10.dtd">
<svg version="1.0" xmlns="http://www.w3.org/2000/svg"
 width="495.000000pt" height="620.000000pt" viewBox="0 0 495.000000 620.000000"
 preserveAspectRatio="xMidYMid meet">

<g transform="translate(0.000000,620.000000) scale(0.100000,-0.100000)"
fill="#000000" stroke="none">
<path d="M1238 6193 c684 -2 1800 -2 2480 0 680 1 121 2 -1243 2 -1364 0
-1921 -1 -1237 -2z"/>
<path d="M2599 5426 c-6 -6 -118 -37 -136 -39 -7 0 -13 -4 -13 -8 0 -13 -61
-29 -86 -23 -17 5 -33 -2 -58 -22 -19 -16 -58 -47 -86 -68 -28 -22 -56 -50
-63 -62 -7 -11 -24 -39 -38 -61 -34 -50 -56 -115 -60 -173 -2 -34 -13 -60 -46
-107 -24 -34 -43 -64 -43 -67 0 -2 -13 -26 -30 -53 -24 -39 -30 -60 -31 -110
-1 -39 3 -69 12 -79 10 -13 10 -17 0 -24 -10 -6 -10 -9 -1 -15 6 -4 9 -14 6
-22 -3 -8 3 -23 14 -35 19 -21 19 -21 -1 -49 -18 -26 -18 -29 -4 -29 12 0 15
-5 11 -16 -3 -9 -6 -19 -7 -22 0 -4 -4 2 -8 12 -5 12 -7 -1 -7 -35 1 -30 4
-58 7 -64 7 -11 -6 -55 -17 -55 -3 0 -3 12 1 27 5 23 4 25 -9 14 -9 -8 -16
-20 -16 -28 0 -24 -28 4 -45 44 -8 18 -18 33 -24 33 -5 0 4 -27 20 -60 16 -33
29 -69 29 -80 0 -12 7 -23 15 -26 8 -4 15 -12 15 -20 0 -8 5 -14 10 -14 6 0
10 -4 10 -10 0 -22 -38 -9 -44 15 -4 14 -13 25 -21 25 -20 0 -19 -16 4 -39 10
-10 21 -31 25 -47 4 -15 21 -41 37 -56 16 -16 29 -34 29 -41 0 -18 24 -67 33
-67 4 0 7 8 8 18 0 12 3 10 11 -8 5 -14 16 -37 24 -52 8 -14 14 -46 15 -70 1
-36 2 -39 9 -18 4 14 8 20 9 13 1 -7 12 -23 26 -37 14 -14 25 -30 25 -36 0 -6
5 -8 10 -5 6 3 10 0 10 -7 0 -8 8 -21 18 -30 9 -9 28 -28 41 -43 13 -14 30
-24 38 -21 20 8 27 -19 14 -52 -6 -15 -13 -83 -16 -152 -3 -69 -8 -174 -11
-234 -4 -74 -3 -107 4 -102 7 4 9 -18 5 -69 -5 -60 -3 -75 8 -75 10 -1 9 -4
-4 -14 -12 -10 -15 -21 -11 -44 8 -40 26 -46 59 -20 l26 20 -3 -38 c-2 -32 0
-38 13 -36 23 3 32 -28 14 -48 -8 -9 -15 -20 -15 -24 0 -14 46 -52 58 -48 18
6 15 -18 -8 -63 -21 -41 -20 -61 2 -26 7 12 18 21 25 21 7 0 13 6 14 13 1 20
22 -36 23 -63 0 -14 6 -25 12 -25 6 0 26 -15 45 -33 41 -40 65 -41 72 -3 6 28
8 29 61 28 31 -1 61 5 70 12 8 7 20 10 26 6 5 -3 10 -1 10 5 0 6 5 8 11 4 6
-3 9 -15 6 -25 -3 -11 -1 -17 4 -13 5 3 9 -4 9 -15 0 -26 16 -36 24 -15 4 9 0
26 -7 38 -25 38 -28 73 -11 123 20 61 27 67 53 54 14 -8 21 -8 21 -1 0 5 -3
10 -7 10 -25 1 -34 17 -22 43 7 15 16 27 21 27 4 0 8 7 8 15 0 19 -5 19 -33 1
l-22 -15 -1 157 c0 155 0 158 -32 224 -17 37 -45 88 -61 113 -16 26 -35 69
-42 95 -7 27 -15 47 -18 45 -4 -2 -5 15 -4 38 2 38 1 39 -6 12 -8 -29 -9 -28
-12 15 -5 75 2 165 14 172 8 5 -7 27 -43 65 -57 60 -87 99 -107 143 -11 25
-32 147 -37 221 -2 22 -7 43 -11 47 -4 4 -5 -6 -1 -21 4 -18 3 -26 -3 -23 -6
4 -6 -5 0 -26 10 -36 12 -98 4 -98 -3 0 -16 7 -29 15 -23 16 -24 15 -28 -23
-2 -31 0 -38 11 -34 8 3 12 1 8 -5 -4 -6 3 -13 15 -17 32 -8 10 -27 -33 -29
-19 -1 -36 -5 -39 -8 -12 -15 -98 -52 -125 -55 l-30 -2 0 67 c0 42 5 74 14 84
22 28 34 170 17 209 -6 13 -2 19 19 24 22 5 26 11 22 30 -4 24 18 53 31 40 4
-4 8 -16 8 -27 1 -10 2 -24 3 -30 0 -6 11 -9 24 -7 14 2 24 11 27 28 3 21 5
18 11 -15 5 -29 6 -23 3 20 -5 70 13 109 38 87 8 -6 18 -9 21 -5 11 10 8 41
-3 45 -16 5 -26 118 -11 118 8 0 10 -8 6 -20 -4 -11 -2 -20 4 -20 6 0 11 -5
11 -12 0 -6 7 -20 16 -30 14 -14 14 -21 4 -32 -7 -10 -9 -28 -5 -48 5 -25 4
-29 -4 -18 -8 11 -11 -3 -11 -53 0 -51 4 -69 15 -73 8 -4 16 -20 16 -38 l2
-31 7 35 c7 31 7 32 9 8 1 -26 4 -28 41 -28 29 0 40 -4 40 -15 0 -8 5 -15 11
-15 9 0 10 21 6 70 -4 47 -2 74 6 83 7 7 22 31 34 53 15 27 28 38 41 37 11 -1
39 17 66 43 26 25 60 47 74 49 15 2 47 10 72 19 25 9 55 16 67 16 12 0 28 7
37 15 9 9 34 15 66 15 33 0 57 6 67 16 18 17 63 11 101 -14 20 -13 22 -13 16
1 -4 12 -1 14 15 10 26 -7 58 16 40 28 -13 8 47 23 65 17 11 -4 58 131 50 143
-3 5 -2 15 3 22 17 27 27 157 12 157 -5 0 -9 11 -9 24 0 14 -5 28 -11 31 -6 4
-8 13 -5 21 3 8 2 14 -2 14 -4 0 -14 21 -20 47 -16 60 -41 112 -65 138 -10 11
-33 40 -49 65 -62 91 -174 188 -204 176 -12 -4 -15 -2 -10 9 4 10 -1 15 -14
15 -11 0 -20 -6 -21 -12 0 -7 -4 -3 -9 10 -5 12 -15 22 -21 22 -8 0 -8 -4 1
-15 17 -21 -9 -19 -80 5 -39 13 -48 19 -30 20 45 2 -8 17 -85 24 -39 3 -88 9
-111 11 -22 3 -42 3 -45 1z m-119 -71 c11 -13 10 -14 -4 -9 -9 3 -16 10 -16
15 0 13 6 11 20 -6z m-44 -11 c-9 -8 -16 -21 -16 -28 0 -20 -38 -59 -49 -51
-6 3 -11 11 -11 17 0 6 3 9 6 5 8 -7 38 21 53 51 6 12 16 22 22 22 6 0 3 -7
-5 -16z m84 -679 c19 -22 4 -34 -38 -28 -34 5 -43 1 -70 -28 -25 -27 -33 -46
-38 -91 -7 -59 -24 -71 -24 -17 0 99 54 179 120 179 21 0 43 -7 50 -15z m-37
-62 c-3 -7 -10 -13 -15 -13 -6 0 -6 -6 1 -14 10 -12 5 -16 -23 -26 -20 -6 -38
-20 -42 -32 -4 -15 -8 -17 -14 -8 -11 18 -2 40 33 75 30 31 69 42 60 18z m32
-273 c3 -5 1 -10 -4 -10 -6 0 -11 5 -11 10 0 6 2 10 4 10 3 0 8 -4 11 -10z
m-60 -74 c0 -13 -3 -22 -7 -19 -5 2 -8 13 -8 24 0 10 3 19 8 19 4 0 7 -11 7
-24z m-11 -88 c9 -36 7 -41 -9 -24 -16 16 -20 46 -6 46 5 0 11 -10 15 -22z
m-467 -230 c-3 -8 -6 -5 -6 6 -1 11 2 17 5 13 3 -3 4 -12 1 -19z m480 -270
c-3 -7 -5 -2 -5 12 0 14 2 19 5 13 2 -7 2 -19 0 -25z m279 -584 c24 -58 15
-71 -11 -16 -28 61 -29 66 -14 56 6 -3 17 -21 25 -40z m-26 -56 c22 -47 26
-83 9 -73 -6 4 -9 0 -7 -10 7 -38 -21 -24 -34 16 -8 28 -9 44 -2 46 6 2 8 17
6 33 -6 42 6 37 28 -12z m-331 -253 c0 -5 -4 -3 -9 5 -5 8 -9 22 -9 30 0 16
17 -16 18 -35z m-11 -30 c-3 -3 -9 2 -12 12 -6 14 -5 15 5 6 7 -7 10 -15 7
-18z m241 -243 c-12 -5 -39 17 -39 30 0 5 11 1 24 -9 13 -10 20 -20 15 -21z
m-69 -25 c0 -31 -3 -38 -10 -27 -13 20 -13 83 0 75 6 -3 10 -25 10 -48z"/>
<path d="M2691 2964 c0 -11 3 -14 6 -6 3 7 2 16 -1 19 -3 4 -6 -2 -5 -13z"/>
<path d="M3831 4546 c-73 -13 -87 -27 -95 -98 -2 -26 -8 -53 -12 -59 -4 -7 -3
-9 3 -6 7 4 10 -4 8 -21 -4 -49 -17 -102 -26 -107 -4 -3 -6 -12 -2 -20 3 -8 0
-15 -7 -15 -8 0 -9 -10 -5 -31 5 -22 4 -29 -4 -25 -15 10 -14 -21 3 -78 14
-45 13 -49 -11 -97 -14 -27 -29 -49 -33 -49 -19 0 -27 -49 -17 -117 10 -77 3
-155 -16 -175 -20 -20 -68 -86 -86 -116 -9 -15 -29 -51 -46 -80 -16 -28 -36
-52 -44 -52 -8 0 -23 -7 -33 -17 -10 -9 -33 -16 -53 -15 -18 1 -47 -5 -62 -13
-15 -8 -34 -15 -41 -15 -7 0 -15 -7 -19 -16 -3 -8 -12 -13 -20 -10 -9 4 -13 0
-12 -12 3 -27 -11 -51 -27 -45 -8 3 -14 0 -14 -6 0 -6 -5 -11 -10 -11 -6 0 -8
11 -4 25 4 16 2 25 -6 25 -6 0 -9 4 -6 9 3 5 -1 11 -9 15 -9 3 -15 0 -15 -9 0
-23 -12 -17 -39 17 -22 28 -24 35 -14 77 16 72 17 75 35 89 20 14 28 51 32
138 2 45 8 69 24 89 25 32 29 53 6 34 -8 -7 -32 -14 -52 -15 -31 -3 -41 2 -61
27 -15 19 -25 46 -26 67 -1 29 -7 40 -27 52 -25 14 -29 13 -48 -8 -11 -12 -29
-22 -39 -22 -23 0 -51 -31 -51 -56 0 -11 -13 -30 -29 -41 -19 -14 -32 -37 -40
-67 -6 -25 -20 -51 -30 -58 -21 -13 -17 -35 8 -55 9 -7 12 -13 6 -13 -5 0 -3
-5 5 -10 9 -6 11 -10 3 -10 -7 0 -10 -7 -6 -16 5 -13 7 -13 14 -2 7 10 9 10 9
-2 0 -8 3 -26 5 -40 4 -20 4 -21 -3 -6 -5 11 -11 15 -15 10 -11 -18 9 -37 32
-29 12 3 19 11 16 16 -4 5 1 9 9 9 9 0 16 5 16 10 0 6 11 10 25 10 28 0 70 17
104 42 13 10 35 19 50 19 17 1 20 3 9 6 -22 6 -23 26 -2 44 14 11 19 9 35 -11
34 -44 37 -110 5 -110 -8 0 -19 -7 -26 -15 -7 -8 -22 -15 -34 -14 -14 0 -16 2
-6 6 33 13 38 27 17 45 -24 22 -28 22 -21 4 4 -10 -5 -13 -35 -13 -31 0 -48
-7 -67 -27 -25 -24 -37 -30 -56 -27 -5 0 -8 -5 -8 -13 0 -8 -8 -17 -18 -20
-24 -8 -30 -83 -7 -92 8 -3 13 -9 10 -13 -2 -4 9 -24 26 -44 33 -40 89 -73 89
-54 1 7 9 2 19 -10 11 -13 24 -23 30 -23 6 0 11 -7 11 -16 0 -8 4 -13 9 -10 5
4 22 -14 37 -39 33 -51 52 -56 134 -39 30 7 68 11 84 9 39 -5 131 46 139 77 3
10 12 18 21 18 9 0 16 5 16 10 0 6 -6 10 -12 10 -10 0 -9 3 1 9 7 5 10 14 7
20 -4 6 0 11 8 11 9 0 16 5 16 10 0 22 19 8 35 -26 12 -27 19 -33 25 -23 5 7
6 -5 3 -29 l-6 -41 43 -7 c24 -4 51 -15 62 -26 10 -10 23 -18 29 -18 13 0 -25
-64 -62 -104 -17 -18 -30 -46 -34 -73 -3 -23 -13 -49 -21 -57 -9 -10 -11 -17
-4 -21 8 -5 7 -11 -1 -21 -6 -7 -9 -21 -5 -29 3 -9 -10 -31 -33 -55 -24 -25
-32 -40 -23 -40 11 0 8 -6 -9 -21 l-24 -21 25 7 c14 4 52 26 85 50 33 23 83
53 110 68 61 31 222 87 250 86 11 0 31 2 45 5 21 5 22 5 5 -3 -17 -8 -18 -10
-2 -10 21 -1 23 -19 2 -27 -8 -4 -15 -10 -15 -15 0 -14 38 -11 43 4 4 9 8 8
16 -3 13 -18 14 -43 2 -36 -16 10 -32 -21 -25 -48 5 -23 3 -27 -25 -32 -17 -4
-31 -10 -31 -15 0 -5 23 0 51 10 45 17 51 18 56 4 4 -9 -1 -21 -10 -28 -10 -7
-17 -15 -17 -18 0 -17 37 -47 57 -47 25 0 28 -7 13 -30 -7 -11 7 -31 62 -85
39 -38 82 -82 95 -96 14 -15 33 -26 42 -25 12 1 15 -6 13 -28 -3 -28 23 -70
38 -61 7 5 54 -124 96 -265 45 -151 72 -282 83 -409 12 -131 23 -172 36 -132
5 16 12 20 23 15 20 -8 96 -22 175 -33 61 -8 78 -20 70 -52 -4 -14 -14 -19
-43 -19 -23 0 -47 -8 -61 -19 l-24 -20 23 -16 c12 -9 22 -23 22 -31 0 -18 18
-17 50 1 29 17 117 20 154 5 l26 -10 0 1455 c0 1418 0 1455 -19 1455 -10 0
-21 9 -24 19 -4 16 -11 18 -53 13 -27 -2 -51 -8 -54 -13 -6 -8 -169 -39 -209
-39 -13 0 -30 8 -37 18 -13 16 -13 16 -14 0 0 -24 -14 -23 -43 5 -52 50 -100
87 -111 87 -7 0 -21 -6 -31 -14 -21 -15 -28 -12 -99 37 -21 15 -46 27 -53 27
-25 0 -73 40 -66 55 5 15 -3 17 -82 20 -25 1 -30 6 -31 26 -1 13 -2 32 -3 42
-1 22 -51 74 -71 75 -8 0 -24 3 -35 5 -11 3 -49 -1 -84 -7z m614 -324 c-3 -3
-11 0 -18 7 -9 10 -8 11 6 5 10 -3 15 -9 12 -12z m50 -32 c3 -5 1 -10 -4 -10
-6 0 -11 5 -11 10 0 6 2 10 4 10 3 0 8 -4 11 -10z m235 -365 c0 -5 -5 -3 -10
5 -5 8 -10 20 -10 25 0 6 5 3 10 -5 5 -8 10 -19 10 -25z m13 -87 c-3 -18 -6
-46 -8 -63 -4 -54 -7 -61 -14 -35 -4 14 -4 38 1 55 4 16 8 50 9 75 0 37 2 41
9 23 5 -12 7 -37 3 -55z m-1704 -70 c0 -27 -2 -29 -8 -13 -5 11 -6 26 -4 33 8
21 13 13 12 -20z m1739 -78 c15 -1 15 -2 -2 -11 -20 -12 -36 2 -36 31 1 12 3
11 11 -2 5 -10 18 -18 27 -18z m-14 -115 c4 -11 4 -16 0 -13 -9 9 -30 -13 -38
-40 -4 -12 -12 -20 -17 -17 -5 4 -9 -12 -9 -36 0 -36 -3 -41 -19 -36 -15 4
-25 -7 -46 -49 -19 -37 -33 -54 -46 -54 -11 0 -19 -6 -19 -12 0 -10 -3 -9 -9
1 -7 10 -13 11 -31 1 -20 -11 -22 -10 -17 4 4 9 2 16 -3 16 -6 0 -10 -4 -10
-10 0 -13 -57 -70 -70 -70 -5 0 -10 -4 -10 -10 0 -5 -6 -10 -12 -10 -7 0 3 16
23 34 20 19 43 43 51 55 26 36 99 111 109 111 5 0 9 -6 9 -13 0 -20 29 -16 36
5 3 10 10 18 15 18 5 0 9 6 9 13 0 7 11 24 25 39 14 15 25 32 25 37 0 5 10 17
23 26 15 12 18 19 10 22 -7 3 -13 11 -13 20 0 12 2 12 13 1 7 -7 16 -22 21
-33z m-929 -1 c18 -13 18 -14 -11 -8 -25 5 -36 0 -62 -25 -29 -30 -50 -41 -37
-21 3 5 1 18 -4 29 -12 21 7 35 33 25 8 -3 17 -1 21 5 9 15 36 13 60 -5z
m-172 -82 c-10 -10 -35 -29 -55 -41 -38 -22 -38 -22 -38 -2 0 11 9 29 20 39
12 11 18 26 14 35 -4 12 2 16 33 19 44 4 56 -19 26 -50z m215 26 c17 -17 15
-48 -8 -93 -23 -46 -45 -65 -112 -100 -62 -33 -156 -35 -183 -5 -24 27 -13 74
15 65 15 -5 18 -3 14 9 -5 13 2 16 34 16 23 0 44 -4 47 -10 10 -16 42 -12 49
6 3 9 6 25 6 35 0 16 5 19 20 14 17 -6 20 -2 20 30 0 34 1 35 17 19 16 -16 18
-15 31 5 16 24 32 27 50 9z m483 -342 c-17 -18 -31 -38 -31 -46 0 -7 -3 -10
-7 -7 -3 4 -13 1 -22 -7 -9 -7 -27 -17 -41 -21 -19 -6 -15 0 16 23 22 16 56
49 74 72 19 24 36 38 38 31 2 -7 -10 -27 -27 -45z m-558 -101 c-10 -13 -24
-25 -30 -25 -7 0 -13 -4 -13 -10 0 -5 -4 -10 -10 -10 -21 0 -9 36 18 52 41 26
57 23 35 -7z m437 -75 c3 -4 19 -14 35 -23 57 -31 96 -71 104 -110 7 -29 6
-37 -5 -37 -8 0 -14 6 -13 13 1 6 -1 20 -4 30 -4 9 -9 24 -12 32 -2 9 -19 23
-36 33 -58 32 -126 84 -99 77 14 -4 27 -11 30 -15z m90 -115 c0 -8 -4 -15 -10
-15 -5 0 -7 7 -4 15 4 8 8 15 10 15 2 0 4 -7 4 -15z m77 -77 c-3 -8 -6 -5 -6
6 -1 11 2 17 5 13 3 -3 4 -12 1 -19z m-55 -28 c-2 -7 0 -20 3 -29 5 -13 10
-12 26 9 l20 25 -7 -25 c-4 -14 -11 -43 -15 -65 -6 -38 -7 -38 -8 -8 -1 20 -8
36 -20 42 -18 10 -34 55 -23 66 10 9 27 -2 24 -15z m-182 -102 c28 -44 40 -70
40 -89 0 -16 -3 -17 -25 -7 -26 12 -31 23 -15 33 18 11 10 23 -11 18 -24 -7
-39 10 -39 45 0 14 6 22 18 22 9 0 24 -10 32 -22z m80 -43 c0 -7 6 -15 13 -18
9 -3 9 -9 0 -28 -13 -25 -12 -60 2 -92 12 -29 -5 -34 -25 -7 -18 24 -20 67 -8
152 3 19 18 14 18 -7z m225 -245 c3 -5 1 -10 -5 -10 -6 0 -8 -4 -5 -10 3 -5
-1 -10 -9 -10 -9 0 -16 6 -16 13 0 25 23 36 35 17z m325 -46 c0 -21 4 -33 10
-29 6 3 10 1 10 -4 0 -7 -28 -11 -71 -11 l-70 0 22 40 c20 36 27 40 61 40 37
0 38 -1 38 -36z"/>
<path d="M4572 3300 c0 -14 2 -19 5 -12 2 6 2 18 0 25 -3 6 -5 1 -5 -13z"/>
<path d="M3857 3383 c-10 -27 -51 -73 -101 -113 -27 -21 -33 -30 -21 -30 25 0
102 65 121 101 8 17 14 38 12 47 -3 14 -5 13 -11 -5z"/>
<path d="M4078 4463 c7 -3 16 -2 19 1 4 3 -2 6 -13 5 -11 0 -14 -3 -6 -6z"/>
<path d="M4152 4401 c18 -16 35 -28 37 -25 6 6 -43 54 -57 54 -7 0 2 -13 20
-29z"/>
<path d="M1368 4400 c-9 -6 -39 -12 -65 -14 -64 -5 -133 -36 -165 -75 -15 -17
-31 -31 -37 -31 -6 0 -20 -9 -31 -20 -11 -11 -32 -20 -47 -21 -16 0 -69 -1
-119 -2 -67 -2 -95 -6 -107 -18 -10 -11 -43 -18 -96 -22 -94 -7 -139 -24 -181
-67 -17 -17 -47 -38 -68 -47 -43 -18 -159 -52 -164 -49 -2 2 -17 6 -35 9 -23
5 -31 3 -29 -8 1 -8 5 -18 9 -21 4 -4 7 -17 7 -30 0 -21 -2 -22 -37 -11 -28 9
-37 9 -41 -1 -2 -7 -15 -12 -28 -12 -13 0 -24 -4 -24 -10 0 -5 -7 -10 -15 -10
-8 0 -15 -4 -15 -8 0 -5 -18 -17 -40 -27 l-40 -18 0 -524 0 -525 24 29 c13 15
53 58 88 94 59 61 200 239 292 369 22 30 65 84 95 119 51 59 106 126 258 314
52 65 148 148 251 219 26 18 57 42 70 53 12 12 81 57 153 100 72 44 154 99
182 123 29 23 82 54 119 68 38 14 71 30 74 36 4 7 0 7 -12 0 -23 -12 -73 -5
-95 15 -9 7 -29 16 -45 18 -16 2 -38 7 -49 10 -11 3 -28 0 -37 -5z"/>
<path d="M1790 4380 c0 -16 5 -30 11 -30 6 0 8 7 5 16 -4 9 -1 23 5 30 9 11 8
14 -5 14 -11 0 -16 -9 -16 -30z"/>
<path d="M1800 4321 c0 -5 5 -13 10 -16 6 -3 10 -2 10 4 0 5 -4 13 -10 16 -5
3 -10 2 -10 -4z"/>
<path d="M2960 4308 c0 -9 6 -19 13 -22 6 -3 -5 -3 -26 0 -51 8 -67 -7 -67
-67 0 -37 4 -49 15 -49 9 0 15 -9 15 -25 0 -14 5 -25 11 -25 5 0 7 5 4 10 -9
15 -2 13 44 -12 28 -15 41 -28 41 -42 -1 -26 -23 -56 -42 -56 -19 0 -38 -20
-38 -40 0 -12 8 -15 36 -12 49 6 72 30 66 71 -3 26 -1 30 12 25 18 -7 22 -24
5 -24 -5 0 -7 -5 -3 -11 8 -14 64 46 65 70 0 9 2 27 3 40 2 13 -5 31 -16 40
-21 18 -24 51 -5 51 7 1 5 6 -5 14 -23 17 -23 26 2 26 11 0 29 -13 41 -30 16
-21 26 -27 35 -19 18 15 5 47 -31 76 -28 23 -43 26 -104 27 -60 1 -71 -2 -71
-16z"/>
<path d="M4458 4263 c7 -3 16 -2 19 1 4 3 -2 6 -13 5 -11 0 -14 -3 -6 -6z"/>
<path d="M2367 4136 c-5 -11 -1 -16 13 -16 11 0 20 -5 20 -12 0 -6 2 -9 5 -6
3 3 1 16 -4 29 -5 13 -10 17 -11 9 0 -12 -2 -12 -9 -2 -7 11 -9 11 -14 -2z"/>
<path d="M3248 4144 c6 -3 9 -10 6 -16 -4 -6 -1 -9 5 -7 19 7 14 24 -6 26 -10
2 -12 0 -5 -3z"/>
<path d="M3146 4104 c-4 -10 -1 -14 6 -12 15 5 23 28 10 28 -5 0 -13 -7 -16
-16z"/>
<path d="M3230 4086 c0 -8 -7 -17 -16 -20 -13 -5 -14 -9 -5 -20 10 -11 8 -17
-6 -25 -10 -6 -13 -11 -8 -11 6 0 -6 -8 -25 -18 -22 -11 -36 -25 -38 -40 -3
-22 -1 -23 30 -17 18 4 55 16 82 28 40 17 51 28 67 65 11 25 17 47 14 50 -3 3
-5 2 -5 -1 0 -4 -16 0 -36 8 -45 19 -54 19 -54 1z"/>
<path d="M3190 4080 c0 -5 7 -7 15 -4 8 4 15 8 15 10 0 2 -7 4 -15 4 -8 0 -15
-4 -15 -10z"/>
<path d="M3141 4064 c0 -11 3 -14 6 -6 3 7 2 16 -1 19 -3 4 -6 -2 -5 -13z"/>
<path d="M3333 4032 c-6 -4 -14 -20 -17 -36 -3 -16 -8 -31 -10 -34 -3 -3 -1
-11 5 -18 8 -9 5 -11 -10 -7 -19 5 -19 3 -8 -26 9 -24 9 -34 0 -39 -14 -9 -12
-44 2 -54 6 -4 27 -5 48 -3 24 3 36 1 32 -5 -3 -6 4 -10 17 -10 19 0 20 2 8
10 -19 13 35 2 63 -12 10 -5 21 -7 25 -4 3 3 -1 6 -9 6 -10 1 -9 3 4 11 21 13
23 59 2 59 -12 0 -13 4 -6 18 7 13 4 24 -9 42 -10 13 -16 29 -13 36 2 6 -7 21
-21 32 -14 11 -26 25 -26 31 0 12 -59 15 -77 3z m44 -94 c-3 -8 -6 -5 -6 6 -1
11 2 17 5 13 3 -3 4 -12 1 -19z m-17 -22 c0 -11 -19 -15 -25 -6 -3 5 1 10 9
10 9 0 16 -2 16 -4z m20 -46 c0 -5 -2 -10 -4 -10 -3 0 -8 5 -11 10 -3 6 -1 10
4 10 6 0 11 -4 11 -10z"/>
<path d="M3050 3941 c-13 -25 -13 -51 0 -51 6 0 10 -8 11 -17 0 -11 3 -13 6
-5 2 6 13 12 23 12 10 0 20 7 24 15 3 9 0 15 -9 15 -8 0 -15 -6 -15 -12 0 -9
-3 -8 -10 2 -5 8 -7 25 -3 37 6 28 -12 31 -27 4z"/>
<path d="M2733 3937 c-14 -19 -7 -70 14 -107 22 -39 49 -54 38 -21 -4 12 -2
21 4 21 6 0 11 7 11 15 0 8 -7 15 -15 15 -16 0 -19 17 -7 37 4 6 23 13 42 15
23 2 36 9 38 20 3 14 -6 17 -57 17 -34 0 -64 -6 -68 -12z m29 -19 c-7 -7 -12
-8 -12 -2 0 6 3 14 7 17 3 4 9 5 12 2 2 -3 -1 -11 -7 -17z"/>
<path d="M1773 3929 c60 -14 94 -36 99 -64 6 -30 -9 -40 -67 -44 -42 -3 -58
-11 -38 -18 10 -3 10 -9 0 -24 -8 -13 -23 -19 -48 -19 -21 0 -47 -8 -62 -20
-17 -13 -40 -20 -71 -20 l-46 0 0 -40 c0 -22 -4 -40 -10 -40 -5 0 -10 7 -10
15 0 11 -11 15 -40 15 -29 0 -40 -4 -40 -15 0 -9 9 -15 25 -15 23 0 25 -4 25
-40 0 -29 -4 -40 -15 -40 -23 0 -19 -61 7 -115 12 -25 26 -45 30 -45 4 0 9 19
10 43 l1 42 4 -39 c3 -21 11 -46 20 -54 12 -13 14 -29 9 -81 -3 -37 -6 -98 -6
-138 0 -43 -5 -77 -12 -85 -19 -20 -36 -48 -58 -93 -23 -49 -44 -75 -58 -75
-11 0 -14 -9 -26 -63 -6 -25 -4 -28 14 -22 12 4 20 2 20 -6 0 -8 3 -9 13 0 10
8 14 7 14 -4 0 -8 -5 -11 -10 -8 -5 3 -7 0 -5 -8 3 -8 13 -14 24 -14 20 0 31
-29 15 -40 -7 -4 -8 1 -4 12 6 16 4 16 -17 -2 -20 -17 -23 -18 -17 -2 5 13 1
17 -14 17 -16 0 -20 -6 -19 -27 4 -51 2 -56 -15 -39 -8 8 -12 21 -9 30 4 11 0
13 -14 9 -14 -3 -22 1 -25 14 -3 12 -5 8 -7 -12 -1 -16 -2 -35 -1 -41 1 -6 -6
-17 -14 -24 -17 -14 -21 -90 -5 -90 6 0 10 15 10 33 0 18 8 50 18 70 l18 37
11 -30 c6 -17 8 -30 3 -30 -4 0 -11 -26 -15 -57 -6 -51 -35 -108 -53 -108 -4
0 -14 -13 -23 -30 -14 -26 -15 -48 -8 -155 7 -118 18 -219 38 -355 9 -58 43
-172 62 -207 5 -10 9 -29 9 -43 0 -13 13 -59 28 -102 16 -43 39 -118 52 -168
15 -60 30 -96 44 -108 20 -17 180 -125 261 -175 22 -14 65 -42 95 -62 101 -67
192 -112 203 -101 6 6 27 11 47 11 32 0 40 5 63 41 21 32 24 43 14 53 -20 20
-149 102 -204 131 -28 14 -57 33 -64 41 -6 8 -17 14 -24 14 -8 0 -15 4 -17 8
-1 5 -19 20 -39 33 -48 32 -151 110 -164 124 -5 6 -28 24 -50 40 -22 15 -46
35 -53 44 -7 9 -16 16 -20 16 -4 0 -23 15 -42 32 -19 18 -38 33 -41 33 -3 0
-21 21 -39 47 -19 25 -28 43 -22 39 21 -13 349 -7 447 8 17 3 77 8 135 11 197
10 329 29 342 49 4 6 28 12 54 13 26 2 54 9 62 15 8 7 24 13 35 15 48 6 67 14
67 27 0 8 -3 16 -7 19 -5 2 -2 2 5 0 8 -1 32 -3 54 -3 23 0 38 -3 34 -7 -8 -9
78 -32 121 -33 17 0 35 -4 38 -10 8 -13 35 -13 35 0 0 5 -8 7 -17 3 -15 -5
-16 -3 -5 8 6 7 12 20 12 28 0 11 -4 10 -15 -5 -14 -18 -14 -18 -15 6 l-1 25
-12 -25 c-11 -25 -11 -25 -15 9 -2 18 1 38 7 44 14 14 14 77 1 77 -5 0 -10 -5
-10 -11 0 -5 -5 -7 -11 -3 -8 4 -9 -1 -5 -17 3 -13 3 -18 0 -11 -3 6 -10 10
-15 6 -5 -3 -9 1 -9 8 0 9 -3 10 -8 2 -4 -6 -24 -17 -44 -23 -27 -9 -38 -18
-38 -32 0 -10 5 -19 12 -19 6 0 9 -2 6 -5 -3 -3 -25 6 -49 20 -24 13 -51 25
-61 25 -9 0 -18 5 -20 12 -6 17 -324 24 -345 7 -12 -10 -16 -10 -24 2 -8 12
-10 12 -19 -1 -9 -13 -11 -13 -20 0 -5 8 -10 25 -10 38 0 13 -4 20 -10 17 -5
-3 -10 -15 -10 -25 0 -10 -3 -20 -8 -22 -4 -1 -17 -16 -30 -32 -24 -31 -26
-27 -22 45 2 45 1 46 -27 42 -18 -3 -34 1 -42 11 -11 13 -8 18 21 36 41 25 48
25 48 0 0 -11 3 -20 8 -20 7 1 35 58 47 100 7 24 7 24 -11 5 -17 -16 -19 -17
-22 -2 -2 9 -9 14 -18 10 -9 -3 -14 0 -12 7 4 18 -17 23 -33 8 -21 -20 -48
-21 -55 -3 -5 12 -14 15 -32 10 -30 -7 -82 12 -82 30 0 7 -7 16 -16 19 -9 4
-14 9 -11 13 4 3 0 11 -9 17 -12 9 -13 17 -5 39 6 15 13 74 16 131 4 87 2 108
-14 139 l-19 37 23 0 c28 0 42 17 26 33 -17 17 -13 27 15 37 15 6 22 15 18 21
-3 6 -1 15 6 19 14 9 6 43 -16 65 -14 13 -14 15 0 15 9 0 16 8 16 19 0 30 11
51 27 51 10 0 14 9 12 28 -2 15 2 37 9 49 7 12 12 33 12 47 0 13 7 32 16 40 8
9 12 21 9 26 -22 35 -4 116 22 106 8 -3 11 -1 8 4 -3 5 2 38 12 72 l18 63 5
-39 c5 -43 30 -63 30 -25 0 13 7 43 16 66 15 38 15 54 4 130 -7 49 -15 131
-20 183 -7 93 -17 126 -72 238 -12 23 -31 48 -42 55 -28 18 -107 37 -148 36
l-33 -1 38 -9z m206 -194 c0 -5 -4 -3 -9 5 -5 8 -9 22 -9 30 0 16 17 -16 18
-35z m-374 -926 c5 -23 10 -28 16 -18 11 19 19 7 13 -18 -5 -18 -10 -20 -30
-13 -13 5 -24 6 -24 2 0 -4 -5 0 -10 8 -5 8 -10 10 -10 4 0 -15 -34 -24 -50
-14 -8 5 -10 15 -5 26 7 17 9 16 15 -6 l8 -25 7 22 c4 13 11 21 15 18 5 -3 19
-1 32 4 12 6 17 10 11 10 -15 1 -18 31 -4 31 5 0 13 -14 16 -31z m55 -34 c-7
-9 -15 -13 -18 -10 -3 2 1 11 8 20 7 9 15 13 18 10 3 -2 -1 -11 -8 -20z m93
16 c4 -1 6 -11 6 -23 -1 -17 -2 -19 -6 -5 -5 20 -29 23 -36 5 -3 -10 -7 -10
-20 1 -26 21 -20 29 16 25 17 -1 35 -3 40 -3z m47 -17 c0 -9 -5 -14 -12 -12
-18 6 -21 28 -4 28 9 0 16 -7 16 -16z m-224 -99 c-16 -57 -25 -75 -38 -75 -21
0 -22 4 -7 31 5 11 11 38 11 61 0 22 4 35 8 28 5 -8 9 -5 13 9 3 12 12 21 19
21 12 0 11 -13 -6 -75z m41 -197 c-3 -8 -6 -5 -6 6 -1 11 2 17 5 13 3 -3 4
-12 1 -19z m-78 -365 c-6 -10 -30 -32 -52 -50 -23 -17 -57 -46 -75 -64 -18
-17 -36 -29 -39 -25 -10 9 143 156 162 156 12 0 13 -4 4 -17z m65 -68 c-4 -8
-11 -15 -16 -15 -6 0 -5 6 2 15 7 8 14 15 16 15 2 0 1 -7 -2 -15z m1143 -201
c-3 -3 -12 -4 -19 -1 -8 3 -5 6 6 6 11 1 17 -2 13 -5z"/>
<path d="M2975 3930 c3 -5 13 -10 21 -10 8 0 12 5 9 10 -3 6 -13 10 -21 10 -8
0 -12 -4 -9 -10z"/>
<path d="M1645 3910 c-3 -5 -16 -10 -28 -10 -30 0 -152 -45 -201 -75 -23 -13
-69 -49 -104 -79 -35 -31 -70 -56 -77 -56 -18 0 -53 -37 -72 -75 -14 -30 -14
-29 -8 18 4 32 3 47 -5 47 -7 0 -9 8 -5 20 5 16 2 20 -18 20 -22 0 -26 -6 -32
-40 -8 -50 -21 -51 -30 -4 -6 34 -25 64 -40 64 -3 0 -4 -8 -1 -17 2 -10 8 -42
11 -70 6 -44 4 -53 -9 -53 -23 0 -39 -36 -26 -59 5 -11 10 -29 10 -40 0 -10 6
-21 13 -24 6 -2 9 -7 6 -11 -4 -4 -23 9 -43 30 -35 36 -36 36 -61 20 -14 -9
-25 -24 -25 -32 0 -18 -51 -93 -62 -94 -5 0 -8 6 -8 13 0 7 -8 20 -17 28 -10
9 -27 27 -38 40 l-20 24 -6 -45 c-5 -34 -2 -51 11 -70 18 -27 50 -94 50 -105
0 -3 -11 5 -24 19 -13 15 -28 26 -34 26 -6 0 -12 6 -15 13 -4 10 -7 10 -18 0
-7 -7 -31 -13 -54 -13 -30 -1 -48 -8 -72 -30 -32 -29 -42 -50 -24 -50 4 0 11
-35 14 -77 3 -43 11 -79 16 -81 13 -4 15 -42 3 -42 -5 0 -18 9 -30 20 -12 11
-26 20 -32 20 -6 0 -19 6 -30 13 -17 10 -22 9 -29 -2 -5 -7 -13 -11 -19 -7
-10 6 -62 -55 -62 -73 0 -6 -7 -11 -16 -11 -13 0 -15 -7 -9 -40 4 -22 3 -40
-2 -40 -15 0 -34 -67 -27 -94 5 -21 3 -26 -13 -26 -26 0 -63 -44 -57 -67 4
-12 26 -24 67 -37 34 -10 76 -24 92 -31 48 -20 96 -33 150 -41 28 -3 55 -10
60 -14 6 -4 19 -10 30 -13 11 -2 -3 -5 -32 -6 -32 -1 -55 -6 -60 -15 -4 -7
-18 -16 -29 -20 -19 -6 -21 -3 -16 19 3 17 0 25 -9 26 -8 0 -64 6 -126 13
-106 11 -143 8 -143 -14 0 -13 58 -39 102 -46 21 -4 38 -11 38 -15 0 -5 10 -8
22 -6 13 2 17 2 10 0 -7 -3 -10 -9 -7 -14 4 -5 -3 -9 -14 -9 -23 0 -29 -16 -8
-23 6 -2 5 -3 -3 -1 -73 14 -269 109 -308 150 -19 19 -37 33 -39 30 -12 -12
51 -77 92 -96 25 -11 45 -23 45 -25 0 -7 -33 -1 -48 9 -24 14 -23 0 1 -25 35
-36 68 -61 74 -56 7 8 -20 46 -37 51 -8 2 1 4 20 5 19 0 47 -7 61 -17 54 -35
80 -55 115 -87 32 -29 33 -33 15 -38 -13 -3 -18 -1 -15 8 3 6 -9 19 -25 27
-17 8 -49 31 -71 52 -22 20 -40 33 -40 28 0 -5 7 -15 15 -22 8 -7 12 -17 9
-22 -4 -6 -10 -5 -15 3 -4 7 -11 11 -14 7 -10 -10 13 -46 39 -60 12 -7 40 -26
62 -41 90 -65 204 -134 243 -147 23 -7 59 -29 81 -47 l40 -34 -24 -23 c-22
-20 -31 -21 -88 -15 -66 6 -109 -4 -90 -23 16 -16 3 -38 -22 -37 -11 0 -15 3
-8 6 20 8 14 26 -8 20 -11 -3 -23 0 -28 6 -6 11 -95 57 -108 57 -10 0 21 -26
39 -33 19 -7 24 -27 6 -27 -5 0 -7 -5 -3 -11 5 -8 0 -10 -17 -6 -13 3 -31 1
-39 -4 -12 -9 -11 -10 5 -5 19 6 19 6 1 -9 -10 -8 -24 -16 -30 -19 -6 -3 0
-13 14 -25 14 -11 21 -23 17 -27 -10 -11 -68 -7 -80 5 -6 6 -14 11 -19 11 -9
0 2 -33 15 -41 5 -4 5 -9 -2 -13 -6 -4 -17 9 -26 30 -19 45 -19 43 8 40 12 -2
28 3 35 11 13 13 12 14 -10 17 -7 1 -12 7 -10 14 1 7 -7 12 -18 12 -14 0 -18
5 -13 17 5 12 3 14 -8 8 -12 -7 -12 -6 -1 6 12 12 16 11 29 -8 15 -23 53 -32
53 -13 0 6 -7 10 -15 10 -18 0 -20 21 -2 39 10 11 9 13 -4 8 -13 -4 -15 1 -13
31 4 41 -12 82 -33 82 -7 0 -13 4 -13 8 0 15 -63 45 -99 46 -34 1 -61 -12 -61
-32 0 -4 11 -19 25 -32 35 -32 33 -59 -2 -55 -62 7 -70 -41 -17 -96 40 -41 38
-59 -8 -59 l-30 0 3 -107 c2 -60 5 -112 7 -116 6 -13 32 14 32 34 0 11 5 19
10 19 14 0 13 -43 -2 -75 -8 -18 -18 -25 -30 -22 -15 4 -18 -1 -18 -33 0 -21
7 -43 15 -50 14 -12 14 -15 0 -36 -13 -20 -15 -124 -15 -824 l0 -800 2478 2
c1362 1 2430 5 2372 8 l-105 6 103 2 c56 1 102 5 102 10 0 4 -44 7 -98 7 -134
0 -132 -1 -132 90 l0 75 49 0 c40 0 54 5 80 29 17 16 31 35 31 42 0 8 8 5 23
-8 49 -44 47 -62 47 391 l0 426 -35 0 c-19 0 -35 4 -35 8 0 14 -64 46 -97 49
-32 2 -80 22 -55 23 7 0 12 15 12 40 0 46 -2 47 -32 21 -13 -11 -34 -29 -48
-40 -21 -17 -22 -20 -7 -21 10 0 15 -5 12 -10 -5 -8 -11 -7 -21 1 -11 9 -22 3
-53 -31 -35 -37 -39 -48 -45 -108 -3 -37 -2 -96 4 -132 5 -36 10 -105 10 -153
0 -56 4 -86 10 -82 5 3 15 -5 22 -19 6 -14 15 -26 20 -26 4 0 8 -18 8 -40 0
-22 5 -40 10 -40 13 0 14 -187 1 -194 -8 -5 -20 -51 -27 -103 -1 -13 2 -23 8
-23 6 0 3 -9 -7 -20 -10 -11 -24 -20 -31 -20 -7 0 -20 -20 -30 -45 -9 -25 -21
-45 -25 -45 -5 0 -9 -11 -9 -24 0 -19 6 -26 28 -29 15 -2 -83 -4 -218 -4 -135
0 -226 2 -202 4 23 2 42 8 42 14 0 5 14 9 30 9 17 0 30 5 30 10 0 6 4 10 10
10 5 0 9 -6 7 -12 -1 -9 18 -13 68 -14 39 -1 58 0 43 3 -29 5 -37 18 -15 26
18 6 -11 57 -33 57 -10 0 -23 7 -30 15 -16 19 -30 19 -30 -1 0 -27 -19 -4 -26
31 -3 19 -12 35 -18 35 -7 0 -32 18 -57 39 -24 22 -51 39 -59 39 -33 -2 -50 3
-50 15 0 7 -24 37 -52 67 -29 30 -52 59 -50 63 1 4 -7 18 -18 30 -12 12 -23
32 -26 44 -4 13 -9 23 -13 23 -4 0 -21 14 -39 30 -18 17 -42 30 -53 30 -11 0
-19 7 -19 18 0 9 -15 33 -33 53 -78 87 -97 117 -96 156 l0 38 13 -35 c6 -19
17 -34 24 -33 7 2 12 -5 12 -16 0 -10 7 -25 16 -32 9 -7 20 -23 25 -36 13 -34
32 -29 27 7 -3 16 -1 30 4 30 4 0 8 -10 8 -22 0 -17 2 -20 9 -9 8 12 13 11 33
-5 14 -11 23 -24 21 -31 -6 -17 22 -66 62 -108 19 -21 35 -40 35 -43 0 -2 10
-15 23 -26 12 -12 28 -31 35 -42 7 -10 16 -24 20 -29 4 -6 40 -27 81 -48 80
-40 161 -52 161 -22 0 8 5 15 10 15 11 0 69 60 70 73 0 4 -7 7 -16 7 -9 0 -28
8 -42 18 -15 10 -34 21 -43 25 -9 3 -19 17 -23 30 -3 14 -20 40 -37 57 -25 25
-29 34 -19 43 10 9 14 9 17 0 10 -28 20 -11 16 27 -2 22 0 40 5 40 13 0 23
110 15 180 -4 39 -10 60 -19 60 -7 0 -14 -9 -16 -21 l-3 -21 -27 22 c-22 17
-28 30 -28 60 0 21 5 40 10 42 7 2 5 17 -5 41 l-15 37 25 0 c14 0 24 3 23 8
-1 4 2 22 6 39 7 31 10 33 52 33 33 0 44 4 44 15 0 9 14 29 30 45 26 25 39 30
80 30 38 0 50 4 50 15 0 10 -10 15 -30 15 -32 0 -122 -21 -130 -30 -5 -6 -58
-22 -133 -39 -54 -12 -157 -14 -173 -3 -15 10 -17 121 -2 156 8 21 9 31 1 33
-11 4 43 63 58 63 5 0 9 12 8 28 0 16 -3 21 -6 12 -8 -21 -34 -39 -55 -40 -13
0 -18 8 -18 27 0 25 -1 25 -19 9 -12 -11 -16 -25 -13 -41 3 -16 -1 -27 -11
-31 -8 -3 -21 -20 -28 -37 -7 -17 -20 -38 -29 -47 -8 -8 -26 -29 -40 -45 -14
-17 -36 -36 -50 -43 -14 -7 -40 -36 -59 -63 -19 -28 -44 -58 -56 -67 -17 -13
-37 -46 -36 -59 0 -1 -13 -16 -30 -34 -16 -17 -29 -37 -29 -45 0 -8 -4 -14
-10 -14 -5 0 -10 -6 -10 -14 0 -8 -7 -16 -15 -20 -8 -3 -15 -10 -15 -16 0 -17
42 -11 56 8 13 16 13 16 14 -3 0 -12 -6 -27 -12 -34 -11 -11 -10 -12 0 -6 11
6 11 3 0 -14 -7 -12 -18 -21 -25 -21 -7 0 -13 -10 -13 -22 -1 -22 -1 -22 -15
-5 -12 16 -14 10 -17 -60 -2 -43 0 -79 5 -81 4 -2 7 -12 7 -23 0 -33 18 -21
35 24 9 24 29 51 45 62 22 15 30 28 30 50 0 17 8 39 16 50 16 20 16 20 9 -2
-4 -14 -2 -23 4 -23 6 0 10 -15 9 -32 -6 -100 20 -508 32 -508 13 0 21 49 14
86 -3 18 -3 42 0 51 6 14 9 12 22 -13 9 -16 17 -42 19 -59 7 -69 19 -107 36
-118 25 -15 24 -23 -2 -30 -28 -7 -17 -23 20 -30 34 -7 101 -67 101 -90 0 -9
7 -23 16 -31 12 -12 12 -16 2 -17 -7 -1 1 -5 17 -9 22 -6 12 -8 -40 -8 -48 0
-64 2 -50 8 17 7 17 9 3 9 -10 1 -18 5 -18 11 0 5 -18 27 -40 50 -24 24 -37
46 -34 55 4 9 0 15 -9 15 -9 0 -22 3 -31 6 -11 4 -20 -5 -32 -35 -9 -23 -19
-39 -22 -37 -6 7 28 99 40 107 4 3 5 20 2 38 -8 38 -18 27 -28 -32 -4 -21 -16
-47 -26 -57 -12 -12 -17 -26 -13 -36 4 -11 2 -15 -4 -11 -16 10 -36 -19 -28
-43 3 -11 13 -20 21 -20 8 0 14 -4 14 -9 0 -6 19 -11 43 -13 23 -2 -193 -5
-481 -6 l-524 -3 7 23 7 23 -19 -22 c-25 -28 -42 -29 -40 -3 1 11 5 20 9 20 4
0 8 5 8 12 0 6 -11 1 -25 -12 -13 -12 -22 -27 -19 -32 3 -4 -353 -7 -802 -6
l-807 3 1 67 c0 43 -4 71 -12 75 -11 8 -38 80 -42 114 -5 53 -17 89 -29 89 -7
0 -16 -8 -18 -18 -3 -9 -6 -1 -7 18 l-2 35 -12 -27 -12 -27 -11 37 c-6 20 -19
69 -28 107 -9 39 -22 81 -29 95 -7 14 -21 57 -30 95 -10 39 -23 86 -31 105
-16 43 -35 145 -35 188 0 18 -4 32 -10 32 -15 0 -12 27 4 33 17 7 29 66 16 82
-12 14 -28 129 -28 204 -1 48 0 51 13 35 14 -18 14 -18 15 4 0 12 0 24 0 27 1
3 7 22 15 44 7 22 11 42 8 45 -4 3 -1 6 5 6 21 0 105 -70 214 -177 58 -58 111
-102 116 -99 5 3 9 -1 8 -8 -1 -15 110 -136 126 -136 5 0 6 4 3 10 -3 6 1 7
10 4 11 -5 13 -10 5 -19 -7 -9 -5 -16 7 -26 15 -12 16 -12 8 1 -8 13 -7 13 8
1 9 -7 17 -19 17 -25 0 -7 11 -23 26 -36 21 -21 27 -22 35 -10 8 12 9 11 5 -5
-4 -16 10 -32 64 -75 38 -30 75 -57 82 -59 7 -2 18 -9 23 -15 23 -25 78 -70
71 -59 -5 9 -2 11 8 7 9 -3 13 -11 9 -17 -4 -7 0 -8 11 -4 14 6 17 3 12 -9 -4
-12 -1 -14 14 -9 15 5 18 3 14 -9 -5 -12 -2 -15 10 -10 10 4 25 -1 36 -11 10
-9 23 -14 29 -10 6 3 9 0 6 -7 -3 -7 14 -26 40 -43 24 -16 39 -32 33 -36 -7
-4 -7 -9 1 -13 6 -4 11 -4 11 -1 0 4 15 -8 33 -26 l32 -33 12 60 c27 140 40
174 83 225 23 27 39 55 37 62 -4 9 -6 9 -6 0 -1 -7 -9 -13 -19 -13 -10 0 -22
-4 -28 -10 -6 -6 -22 -6 -44 0 -19 6 -46 10 -60 10 -29 0 -111 31 -194 73 -32
16 -70 32 -84 36 -14 4 -33 20 -42 37 -13 22 -25 30 -52 32 -20 2 -42 10 -48
18 -7 8 -19 14 -26 14 -8 0 -14 4 -14 8 0 4 -19 20 -43 35 -42 27 -77 60 -77
74 0 4 -9 17 -21 29 -11 12 -23 37 -26 55 -3 19 -9 42 -14 51 -14 26 -11 74 6
88 8 7 15 23 15 37 0 14 4 21 10 18 6 -4 10 5 10 19 0 14 -4 26 -10 26 -5 0
-10 -4 -10 -10 0 -5 -9 -10 -20 -10 -26 0 -26 27 1 35 16 5 18 10 8 21 -6 8
-21 14 -33 14 -14 0 -17 3 -8 8 8 6 -5 17 -42 36 -61 31 -72 41 -78 71 -2 12
-13 21 -28 24 -33 4 -122 100 -114 123 6 19 -16 67 -49 104 -12 14 -23 40 -25
57 -1 17 -9 39 -18 49 -13 14 -16 32 -12 88 6 79 -7 104 -42 82 -24 -15 -44
-7 -58 23 -15 32 7 52 37 35 20 -10 20 -12 5 -35 -18 -27 -4 -35 16 -10 10 12
16 13 27 4 23 -20 25 -4 2 25 -12 15 -19 30 -16 33 9 9 57 -48 57 -68 0 -10 5
-30 11 -46 7 -15 14 -44 16 -63 2 -19 8 -36 13 -38 6 -2 10 -11 10 -20 0 -9 4
-23 9 -30 15 -24 19 31 5 84 -9 35 -9 44 -1 33 7 -9 17 -14 22 -12 6 2 28 -6
50 -17 45 -23 55 -20 27 8 -11 11 -22 36 -26 56 -9 47 11 81 53 89 32 7 45 37
16 37 -8 0 -15 4 -15 9 0 16 30 33 49 28 22 -5 51 9 51 26 0 7 15 17 33 22 19
6 37 21 45 37 12 25 58 45 90 39 15 -2 16 100 2 341 -7 114 -7 183 -1 199 8
20 10 21 10 5 1 -11 4 -17 7 -13 3 3 3 16 -1 28 l-7 22 -15 -24 -14 -24 5 25
c8 33 22 157 25 210 1 20 3 22 11 10 7 -11 10 -6 10 21 0 19 4 39 9 45 6 5 5
30 -3 64 -8 34 -11 87 -8 133 3 54 1 77 -7 77 -14 0 -14 19 2 53 8 17 20 27
35 27 13 0 22 6 22 15 0 8 -4 15 -10 15 -5 0 -10 -4 -10 -10 0 -5 -4 -10 -10
-10 -5 0 -10 6 -10 13 0 16 58 87 71 87 6 0 21 12 34 28 13 15 27 24 31 20 4
-5 0 -16 -9 -26 -10 -10 -17 -26 -17 -35 0 -23 25 -22 27 1 1 9 4 28 5 42 3
29 57 65 125 83 24 6 43 14 43 18 0 4 22 10 50 14 56 8 78 25 31 25 -16 0 -33
-4 -36 -10z m-378 -577 c-3 -10 -5 -2 -5 17 0 19 2 27 5 18 2 -10 2 -26 0 -35z
m-23 -112 c-4 -36 -9 -57 -12 -47 -2 10 -1 49 4 85 4 36 9 57 12 47 2 -10 1
-49 -4 -85z m-819 -431 c3 -5 -1 -10 -9 -10 -9 0 -16 5 -16 10 0 6 4 10 9 10
6 0 13 -4 16 -10z m443 4 c12 -4 22 -14 21 -23 0 -10 -2 -11 -6 -3 -6 15 -39
16 -49 0 -5 -8 0 -9 15 -5 18 4 20 3 10 -9 -24 -29 -56 -5 -43 31 7 16 17 18
52 9z m105 -13 c-4 -3 -11 -10 -15 -15 -5 -5 -8 0 -8 12 0 15 4 20 16 15 9 -3
12 -9 7 -12z m-44 -13 c-1 -21 -2 -21 -7 -3 l-5 20 -8 -20 c-7 -19 -8 -19 -8
3 -1 13 5 22 14 22 9 0 15 -9 14 -22z m108 16 c-3 -3 -12 -4 -19 -1 -8 3 -5 6
6 6 11 1 17 -2 13 -5z m40 -26 c-3 -7 -5 -2 -5 12 0 14 2 19 5 13 2 -7 2 -19
0 -25z m64 18 c5 3 9 1 9 -5 0 -5 -4 -13 -10 -16 -5 -3 -10 -4 -10 -1 0 2 -2
10 -3 18 -2 7 -2 10 0 5 3 -4 9 -5 14 -1z m50 5 c10 17 21 7 14 -13 -6 -15
-45 -14 -45 1 0 14 15 22 19 10 2 -8 6 -8 12 2z m35 -17 c-4 -9 -9 -15 -11
-12 -3 3 -3 13 1 22 4 9 9 15 11 12 3 -3 3 -13 -1 -22z m-112 -2 c3 -5 -1 -9
-9 -9 -8 0 -15 4 -15 9 0 4 4 8 9 8 6 0 12 -4 15 -8z m-690 -390 c3 -5 -1 -9
-9 -9 -8 0 -15 4 -15 9 0 4 4 8 9 8 6 0 12 -4 15 -8z m-327 -214 c-3 -8 -6 -5
-6 6 -1 11 2 17 5 13 3 -3 4 -12 1 -19z m53 -29 c0 -4 -7 -12 -15 -19 -13 -11
-14 -10 -10 3 4 8 2 18 -4 22 -6 3 -11 10 -11 16 0 5 9 4 20 -3 11 -7 20 -16
20 -19z m70 -9 c0 -5 -2 -10 -4 -10 -3 0 -8 5 -11 10 -3 6 -1 10 4 10 6 0 11
-4 11 -10z m-44 -12 c4 -6 -1 -17 -11 -24 -23 -17 -29 -12 -20 15 7 23 20 27
31 9z m388 -54 c5 -14 4 -15 -9 -4 -17 14 -19 20 -6 20 5 0 12 -7 15 -16z
m-458 -61 c-7 -7 -26 7 -26 19 0 6 6 6 15 -2 9 -7 13 -15 11 -17z m39 -23 c3
-5 1 -10 -4 -10 -6 0 -11 5 -11 10 0 6 2 10 4 10 3 0 8 -4 11 -10z m38 -30 c3
-11 3 -20 1 -20 -2 0 -8 9 -14 20 -6 11 -7 20 -2 20 6 0 12 -9 15 -20z m-43
-11 c0 -5 -7 -9 -15 -9 -8 0 -15 7 -15 15 0 9 6 12 15 9 8 -4 15 -10 15 -15z
m615 -319 c8 -13 -25 -13 -45 0 -12 8 -9 10 12 10 15 0 30 -4 33 -10z m3223
-425 c-3 -3 -19 -10 -37 -15 -24 -7 -31 -6 -31 6 0 10 12 14 37 14 20 0 34 -2
31 -5z m-2708 -219 c0 -5 -7 -3 -15 4 -8 7 -12 17 -9 22 7 10 24 -9 24 -26z
m2807 28 c-3 -3 -12 -4 -19 -1 -8 3 -5 6 6 6 11 1 17 -2 13 -5z m-237 -100 c0
-8 -5 -12 -10 -9 -6 4 -8 11 -5 16 9 14 15 11 15 -7z m-2455 -14 c3 -5 1 -10
-4 -10 -6 0 -11 5 -11 10 0 6 2 10 4 10 3 0 8 -4 11 -10z m2544 -90 c29 -28
61 -50 71 -50 10 0 25 -7 34 -15 8 -9 18 -16 21 -15 20 1 25 -2 25 -15 0 -8
-10 -16 -22 -16 -14 -1 -10 -4 12 -8 42 -7 56 -41 17 -41 -14 0 -30 7 -37 15
-7 8 -21 15 -31 15 -12 0 -19 7 -19 20 0 13 -7 20 -20 20 -11 0 -20 4 -20 8 0
11 -35 52 -44 52 -11 0 -55 54 -56 67 0 6 -6 14 -12 17 -7 3 -4 4 8 1 11 -3
44 -28 73 -55z m-402 -12 c-3 -8 -6 -5 -6 6 -1 11 2 17 5 13 3 -3 4 -12 1 -19z
m200 -24 c-3 -3 -12 -4 -19 -1 -8 3 -5 6 6 6 11 1 17 -2 13 -5z m-3077 -212
l0 -27 -14 25 c-13 26 -11 44 5 35 5 -4 9 -18 9 -33z m3020 -77 c0 -14 -4 -25
-9 -25 -4 0 -6 11 -3 25 2 14 6 25 8 25 2 0 4 -11 4 -25z m17 -17 c-3 -7 -5
-2 -5 12 0 14 2 19 5 13 2 -7 2 -19 0 -25z m-2834 -163 l4 -30 2 33 c1 44 21
31 21 -14 0 -19 -4 -33 -9 -29 -6 3 -7 -9 -4 -30 3 -19 3 -35 0 -35 -8 0 -37
103 -37 131 0 32 17 12 23 -26z m46 -230 c-1 -11 -7 3 -15 30 -7 28 -13 59
-13 70 0 11 7 -2 14 -30 8 -27 14 -59 14 -70z m18 33 c-3 -8 -6 -5 -6 6 -1 11
2 17 5 13 3 -3 4 -12 1 -19z m3315 -10 c-7 -7 -12 -8 -12 -2 0 14 12 26 19 19
2 -3 -1 -11 -7 -17z m-4134 -53 c-3 -3 -9 2 -12 12 -6 14 -5 15 5 6 7 -7 10
-15 7 -18z"/>
<path d="M3255 3900 c3 -5 13 -10 21 -10 8 0 12 5 9 10 -3 6 -13 10 -21 10 -8
0 -12 -4 -9 -10z"/>
<path d="M3050 3782 c0 -10 33 -42 43 -42 4 0 1 11 -5 25 -10 23 -38 35 -38
17z"/>
<path d="M1335 3719 c-4 -5 -1 -24 6 -41 11 -26 10 -32 -4 -40 -11 -6 -17 -22
-17 -43 0 -28 4 -35 19 -35 17 0 20 9 23 69 2 38 2 76 0 85 -4 18 -18 21 -27
5z"/>
<path d="M2046 3702 c-3 -5 -1 -36 5 -68 5 -32 12 -74 15 -93 2 -18 9 -41 15
-50 7 -12 9 -4 7 32 -2 26 1 47 5 47 5 0 7 6 4 13 -2 6 -9 11 -15 10 -5 -1
-12 17 -14 41 -1 24 1 42 5 39 5 -3 7 3 5 12 -3 21 -23 31 -32 17z"/>
<path d="M2680 3593 c0 -10 -3 -29 -6 -43 l-5 -25 15 25 c18 29 21 60 6 60 -5
0 -10 -8 -10 -17z"/>
<path d="M2716 3581 c-3 -5 -8 -47 -11 -94 -5 -78 -4 -85 15 -90 14 -4 20 0
20 11 0 13 2 14 9 4 7 -11 9 -11 14 2 4 9 1 16 -5 16 -8 0 -9 3 -2 10 7 7 8
29 3 62 -5 28 -5 56 -2 61 3 6 1 7 -5 3 -7 -4 -12 -16 -12 -27 0 -11 -4 -18
-9 -14 -6 3 -8 19 -6 35 4 31 1 37 -9 21z m34 -106 c0 -14 -4 -25 -9 -25 -4 0
-6 11 -3 25 2 14 6 25 8 25 2 0 4 -11 4 -25z"/>
<path d="M965 3570 c-3 -5 -1 -10 4 -10 6 0 11 5 11 10 0 6 -2 10 -4 10 -3 0
-8 -4 -11 -10z"/>
<path d="M2660 3436 c0 -2 7 -9 15 -16 12 -10 15 -10 15 4 0 9 -7 16 -15 16
-8 0 -15 -2 -15 -4z"/>
<path d="M2776 3414 c-8 -22 -8 -24 6 -24 6 0 8 3 5 7 -4 3 -2 12 4 20 7 8 8
13 1 13 -5 0 -13 -7 -16 -16z"/>
<path d="M2690 3367 c0 -7 4 -17 9 -22 5 -6 11 -21 13 -34 3 -27 28 -42 28
-17 0 9 5 16 11 16 6 0 9 -9 6 -20 -3 -13 0 -20 8 -20 7 0 19 -2 27 -3 7 -2
10 -2 6 0 -4 2 -4 11 -1 19 3 8 0 14 -7 14 -7 0 -10 8 -7 20 3 11 1 20 -5 20
-6 0 -7 7 -4 16 3 8 2 12 -4 9 -6 -3 -10 -16 -11 -28 0 -22 0 -22 -10 1 -5 13
-7 28 -3 33 3 5 -9 9 -25 9 -19 0 -31 -5 -31 -13z m42 -39 c-9 -9 -12 -7 -12
12 0 19 3 21 12 12 9 -9 9 -15 0 -24z"/>
<path d="M2790 3240 c0 -4 11 -13 25 -20 14 -7 23 -15 20 -18 -2 -3 -11 1 -19
7 -12 10 -19 8 -35 -8 l-21 -21 27 0 c14 0 24 -3 20 -6 -3 -3 -1 -18 4 -32 10
-26 10 -26 -10 -7 -23 20 -27 14 -11 -15 6 -12 17 -16 30 -13 12 3 20 0 20 -6
0 -7 5 -9 12 -5 8 5 9 2 5 -9 -5 -13 0 -17 21 -19 49 -2 77 3 87 16 12 15 27
7 55 -28 14 -18 14 -19 -7 -7 -25 13 -45 6 -90 -29 -20 -16 -21 -19 -7 -38 8
-12 14 -30 12 -39 -2 -14 3 -17 27 -15 23 2 27 1 15 -7 -8 -6 -24 -11 -35 -11
-17 0 -17 -2 -5 -10 8 -6 29 -8 45 -5 29 5 29 5 5 -5 -13 -6 -36 -9 -50 -5
l-25 5 25 -15 25 -15 -32 6 c-22 5 -33 3 -33 -5 0 -7 -6 -9 -12 -5 -7 4 -4 -2
7 -12 24 -23 91 -48 105 -39 6 4 31 8 56 9 24 1 49 7 55 13 12 12 19 143 9
143 -4 0 -12 18 -19 41 -9 31 -19 43 -42 51 -16 5 -29 16 -29 24 0 8 -11 19
-24 24 -24 9 -41 27 -41 45 0 6 -22 15 -49 22 -26 7 -51 15 -55 19 -3 4 2 4
11 1 12 -4 15 -2 11 9 -3 7 -11 14 -19 14 -8 0 -14 4 -14 9 0 5 -11 11 -25 13
-14 3 -25 2 -25 -2z m265 -300 c15 -6 9 -9 -25 -9 -34 0 -40 3 -25 9 11 5 22
9 25 9 3 0 14 -4 25 -9z m-125 -94 c0 -11 -19 -15 -25 -6 -3 5 1 10 9 10 9 0
16 -2 16 -4z"/>
<path d="M2755 3230 c3 -5 11 -10 16 -10 6 0 7 5 4 10 -3 6 -11 10 -16 10 -6
0 -7 -4 -4 -10z"/>
<path d="M2012 3144 c-7 -8 -21 -35 -32 -61 -11 -27 -24 -55 -29 -64 -6 -11
-6 -20 2 -28 17 -17 27 -13 27 10 0 11 4 18 8 15 8 -4 48 132 40 139 -1 1 -9
-3 -16 -11z"/>
<path d="M408 3083 c7 -3 16 -2 19 1 4 3 -2 6 -13 5 -11 0 -14 -3 -6 -6z"/>
<path d="M1262 3070 c0 -14 2 -19 5 -12 2 6 2 18 0 25 -3 6 -5 1 -5 -13z"/>
<path d="M2873 2997 c4 -10 7 -27 7 -38 0 -10 7 -19 15 -19 22 0 18 34 -7 56
-20 18 -21 18 -15 1z"/>
<path d="M2820 2884 c0 -11 29 -34 34 -26 2 4 -4 13 -15 20 -10 7 -19 10 -19
6z"/>
<path d="M1260 2850 c0 -5 5 -10 11 -10 5 0 7 5 4 10 -3 6 -8 10 -11 10 -2 0
-4 -4 -4 -10z"/>
<path d="M1410 2818 c0 -9 5 -20 10 -23 13 -8 13 5 0 25 -8 13 -10 13 -10 -2z"/>
<path d="M1357 2808 c-16 -12 -15 -13 8 -13 14 0 25 6 25 13 0 6 -4 12 -8 12
-5 0 -16 -6 -25 -12z"/>
<path d="M1322 2770 c0 -19 2 -27 5 -17 2 9 2 25 0 35 -3 9 -5 1 -5 -18z"/>
<path d="M1262 2758 c-1 -23 2 -28 8 -18 12 19 13 50 2 50 -5 0 -9 -14 -10
-32z"/>
<path d="M1290 2763 c0 -12 5 -25 10 -28 13 -8 13 15 0 35 -8 12 -10 11 -10
-7z"/>
<path d="M1360 2770 c0 -5 4 -10 9 -10 6 0 13 5 16 10 3 6 -1 10 -9 10 -9 0
-16 -4 -16 -10z"/>
<path d="M240 2685 c0 -9 9 -15 21 -15 18 0 19 2 9 15 -7 8 -16 15 -21 15 -5
0 -9 -7 -9 -15z"/>
<path d="M2190 2630 c-6 -25 -18 -57 -26 -72 -12 -22 -11 -27 1 -32 9 -3 19 3
25 14 6 11 17 20 25 20 8 0 15 1 15 3 -1 1 -7 27 -14 57 l-13 55 -13 -45z"/>
<path d="M3870 2630 c0 -5 5 -10 10 -10 6 0 10 5 10 10 0 6 -4 10 -10 10 -5 0
-10 -4 -10 -10z"/>
<path d="M2236 2595 c4 -8 10 -15 15 -15 5 0 9 7 9 15 0 8 -7 15 -15 15 -9 0
-12 -6 -9 -15z"/>
<path d="M3771 2569 c-86 -45 -103 -58 -96 -70 3 -4 -11 -11 -30 -15 -26 -4
-33 -10 -26 -17 7 -7 18 -7 37 2 22 10 25 9 21 -3 -4 -10 0 -12 16 -9 18 4 20
3 7 -7 -13 -10 -12 -11 3 -6 13 4 30 -5 53 -26 19 -18 34 -35 34 -39 0 -11
-83 12 -102 28 -9 8 -33 18 -52 23 -32 7 -36 6 -36 -11 0 -23 61 -52 130 -63
25 -3 57 -14 72 -24 26 -17 26 -18 9 -41 -17 -22 -21 -23 -67 -13 -86 19 -144
24 -144 13 0 -6 22 -11 53 -11 47 -1 132 -23 165 -44 11 -6 7 -13 -14 -27 -15
-10 -31 -16 -36 -13 -4 3 -8 0 -8 -7 0 -8 -5 -7 -17 2 -14 12 -16 12 -8 0 6
-11 2 -13 -19 -9 -28 6 -33 -1 -14 -20 9 -9 0 -16 -35 -31 -51 -22 -216 -28
-228 -9 -4 7 -28 -10 -58 -40 -29 -29 -63 -55 -76 -58 -14 -3 -25 -10 -25 -15
0 -5 -7 -9 -16 -9 -10 0 -14 -6 -11 -14 8 -20 -19 -40 -40 -32 -15 6 -15 8 -3
16 8 6 12 10 8 11 -27 5 -36 4 -62 -9 -21 -10 -30 -11 -36 -2 -20 32 -159 33
-161 1 0 -10 -4 -7 -10 8 -7 18 -13 21 -21 13 -8 -8 -19 -5 -40 13 -16 14 -36
25 -44 25 -8 0 -14 5 -14 10 0 6 -4 10 -8 10 -9 0 -9 -37 1 -60 14 -35 25 -92
21 -105 -3 -8 -2 -20 2 -27 18 -29 21 -65 10 -127 -5 -28 -5 -41 2 -37 10 6
13 30 15 103 l2 42 50 8 c27 4 55 8 60 8 6 0 42 13 81 28 38 15 109 38 157 51
47 13 98 33 113 45 14 11 42 23 63 27 20 4 43 10 52 15 9 5 70 11 134 13 100
4 127 2 174 -14 64 -23 120 -26 145 -7 17 12 16 14 -8 25 -14 6 -26 16 -26 22
0 18 29 10 52 -14 29 -31 72 -48 104 -40 29 8 31 27 3 53 -23 21 -8 41 16 21
19 -16 65 -4 65 15 0 8 -5 15 -11 15 -21 0 -36 26 -34 60 2 24 -4 39 -16 48
-11 7 -19 19 -19 27 0 19 -47 65 -66 65 -9 0 -22 -6 -29 -14 -12 -12 -10 -18
15 -40 17 -14 30 -31 30 -37 0 -15 -42 -7 -51 11 -25 48 -39 86 -39 106 0 13
-6 27 -14 31 -8 4 -15 17 -17 27 -3 15 -19 23 -59 34 -56 14 -94 36 -55 32 35
-4 37 0 8 24 -26 22 -29 23 -46 9 -19 -18 -30 -15 -19 4 8 13 123 79 155 90
16 5 25 24 10 22 -5 0 -41 -18 -82 -40z m-41 -89 c0 -5 -5 -10 -11 -10 -5 0
-7 5 -4 10 3 6 8 10 11 10 2 0 4 -4 4 -10z m185 -315 l30 -25 -31 0 c-30 0
-32 2 -62 63 -6 12 27 -8 63 -38z m-135 -45 c36 -19 36 -19 -15 -35 -10 -3
-19 5 -25 21 -16 42 -13 43 40 14z"/>
<path d="M3905 2580 c-3 -5 -1 -10 4 -10 6 0 11 5 11 10 0 6 -2 10 -4 10 -3 0
-8 -4 -11 -10z"/>
<path d="M19 2518 c-11 -8 -10 -9 4 -4 9 3 17 1 17 -4 0 -6 -9 -10 -21 -10
-19 0 -18 -2 8 -37 15 -21 35 -45 44 -53 8 -8 32 -35 51 -60 20 -25 54 -58 77
-75 22 -16 39 -36 36 -43 -3 -7 0 -10 6 -7 5 4 21 0 34 -9 34 -22 42 -20 43
12 0 15 1 29 2 32 1 3 3 24 5 47 2 30 0 40 -9 37 -7 -3 -25 8 -42 23 -34 33
-93 43 -113 19 -17 -20 -27 -10 -71 71 -37 67 -49 77 -71 61z m41 -49 c0 -6
-4 -7 -10 -4 -5 3 -10 11 -10 16 0 6 5 7 10 4 6 -3 10 -11 10 -16z"/>
<path d="M3210 2513 c0 -15 -2 -16 -11 -3 -9 13 -10 13 -6 0 5 -20 37 -26 37
-6 0 8 -4 18 -10 21 -5 3 -10 -2 -10 -12z"/>
<path d="M2130 2486 c0 -7 -8 -24 -19 -37 -10 -13 -16 -30 -14 -36 3 -7 0 -13
-7 -13 -6 0 -42 -26 -79 -57 -37 -32 -78 -66 -90 -75 -28 -23 -26 -29 12 -53
25 -16 49 -20 109 -20 43 0 78 -3 78 -7 0 -5 14 -8 30 -8 35 0 37 -6 11 -29
-26 -23 -62 -97 -55 -115 10 -26 20 -19 40 29 10 25 22 45 27 45 4 0 5 5 2 10
-4 6 7 8 29 4 28 -4 36 -2 36 10 0 9 7 16 16 16 14 0 14 -3 4 -15 -8 -9 -8
-15 -2 -15 6 0 17 7 26 15 18 19 27 19 20 1 -4 -11 3 -14 29 -12 19 2 39 6 45
10 6 3 13 0 15 -6 4 -9 6 -8 6 2 1 12 3 12 9 2 6 -9 16 -10 32 -4 l24 9 -30
10 c-16 5 -49 11 -74 12 -99 5 -44 11 103 11 128 0 158 3 171 16 10 10 16 11
16 3 0 -9 4 -8 15 1 19 16 20 70 1 70 -7 0 -19 7 -26 15 -16 20 -36 4 -50 -39
-7 -22 -9 -24 -6 -6 2 14 7 33 11 43 5 12 2 17 -10 17 -9 0 -14 4 -10 10 3 5
13 6 23 3 15 -6 15 -4 -2 15 -22 26 -30 28 -22 7 3 -8 1 -15 -4 -15 -6 0 -10
-6 -10 -12 0 -7 -9 -24 -19 -38 -15 -19 -22 -22 -33 -12 -11 9 -17 9 -27 -1
-11 -10 -12 -8 -6 10 5 18 3 22 -9 17 -9 -3 -16 -11 -17 -18 0 -6 -4 -2 -8 9
-5 11 -5 22 0 25 4 3 4 12 -1 20 -7 10 -10 11 -10 3 0 -7 -7 -13 -15 -13 -8 0
-15 -7 -15 -15 0 -8 -3 -15 -7 -15 -5 0 -16 -14 -26 -31 -10 -18 -20 -29 -24
-26 -3 3 7 27 21 52 21 36 24 45 11 45 -8 0 -15 5 -15 11 0 7 -7 8 -17 4 -10
-4 -22 -8 -28 -9 -5 -1 -16 -5 -24 -10 -11 -7 -11 -10 0 -17 11 -7 10 -9 -3
-9 -9 0 -19 -6 -21 -12 -6 -14 -11 17 -7 41 1 11 -2 12 -12 4 -12 -10 -53 -3
-47 7 2 3 -8 27 -21 53 -20 41 -22 52 -13 78 10 25 9 31 -7 39 -25 13 -30 13
-30 -4z m277 -263 c-3 -10 -5 -4 -5 12 0 17 2 24 5 18 2 -7 2 -21 0 -30z
m-112 -53 c4 -6 -10 -10 -37 -9 -40 1 -41 2 -13 9 43 11 43 11 50 0z m-70 -30
c3 -5 1 -10 -4 -10 -6 0 -11 5 -11 10 0 6 2 10 4 10 3 0 8 -4 11 -10z"/>
<path d="M2223 2384 c-21 -15 -22 -44 -1 -44 6 0 4 7 -3 16 -12 15 -11 16 9
10 18 -6 22 -4 22 13 0 24 1 24 -27 5z"/>
<path d="M1120 2350 c0 -5 5 -10 10 -10 6 0 10 5 10 10 0 6 -4 10 -10 10 -5 0
-10 -4 -10 -10z"/>
<path d="M0 2308 c0 -9 5 -20 10 -23 13 -8 13 5 0 25 -8 13 -10 13 -10 -2z"/>
<path d="M2700 2230 c0 -11 5 -20 10 -20 6 0 10 6 10 14 0 8 6 17 13 19 6 3 2
6 -10 6 -17 1 -23 -5 -23 -19z"/>
<path d="M433 2178 c-20 -7 -33 -18 -33 -28 0 -15 6 -15 55 -7 34 7 55 15 55
24 0 7 -4 13 -9 13 -5 0 -15 2 -23 4 -7 2 -28 -1 -45 -6z"/>
<path d="M2510 2145 c0 -19 12 -26 27 -14 10 9 17 8 28 -1 18 -15 20 -4 3 13
-17 16 -58 17 -58 2z"/>
<path d="M2600 2150 c-13 -9 -13 -10 0 -9 8 1 26 5 40 9 l25 8 -25 1 c-14 0
-32 -4 -40 -9z"/>
<path d="M2477 2143 c-13 -12 -7 -23 13 -23 13 0 18 5 14 15 -7 16 -17 19 -27
8z"/>
<path d="M2680 2135 c-9 -10 -9 -15 -1 -15 6 0 11 4 11 9 0 5 8 12 18 14 14 4
14 5 1 6 -9 0 -22 -6 -29 -14z"/>
<path d="M2776 2125 c-3 -8 -1 -15 3 -15 5 0 11 7 15 15 3 8 1 15 -3 15 -5 0
-11 -7 -15 -15z"/>
<path d="M2800 2100 c0 -10 -8 -24 -17 -29 -15 -9 -12 -10 17 -11 19 0 30 4
24 8 -6 4 -10 17 -9 30 1 12 -2 22 -7 22 -4 0 -8 -9 -8 -20z"/>
<path d="M2727 2030 c16 -15 70 -19 70 -6 0 9 -14 13 -39 13 -22 0 -36 -3 -31
-7z"/>
<path d="M851 1944 c0 -11 3 -14 6 -6 3 7 2 16 -1 19 -3 4 -6 -2 -5 -13z"/>
<path d="M3870 1841 c0 -21 13 -41 26 -41 17 0 18 22 2 38 -14 14 -28 16 -28
3z"/>
<path d="M3920 1770 c0 -39 -4 -50 -16 -50 -9 0 -14 -6 -11 -12 2 -7 12 -13
23 -13 16 0 19 7 16 50 -1 27 3 52 9 55 7 5 5 9 -5 13 -13 5 -16 -2 -16 -43z"/>
<path d="M3448 1793 c7 -3 16 -2 19 1 4 3 -2 6 -13 5 -11 0 -14 -3 -6 -6z"/>
<path d="M2818 1749 c5 -52 17 -58 17 -8 0 21 -4 40 -10 43 -6 2 -9 -11 -7
-35z"/>
<path d="M2360 1716 c0 -10 28 -13 41 -5 10 6 7 9 -13 9 -16 0 -28 -2 -28 -4z"/>
<path d="M3475 1705 c-16 -7 -54 -16 -82 -20 -81 -10 -71 -21 21 -24 79 -1 84
0 117 29 l34 30 -30 -1 c-16 0 -43 -7 -60 -14z"/>
<path d="M2315 1700 c3 -5 12 -7 20 -3 21 7 19 13 -6 13 -11 0 -18 -4 -14 -10z"/>
<path d="M3791 1663 c-5 -10 -9 -22 -10 -28 0 -5 -11 -11 -23 -11 -76 -5 -198
-39 -198 -55 0 -5 -12 -9 -27 -9 -15 0 -40 -4 -57 -9 -103 -32 -240 -57 -328
-60 -19 -1 -28 -6 -28 -17 0 -13 -7 -15 -40 -9 -36 6 -40 5 -40 -14 0 -12 6
-21 15 -21 9 0 18 -7 21 -15 4 -8 14 -15 24 -15 10 0 20 -7 24 -15 3 -8 15
-15 26 -15 12 0 37 -16 57 -35 31 -30 43 -35 87 -37 94 -3 121 0 151 16 17 9
40 16 52 16 24 0 103 40 103 52 0 4 9 8 20 8 20 0 60 32 60 48 0 5 18 14 40
21 31 9 40 17 40 34 0 13 24 48 60 86 33 35 60 67 60 72 0 12 -35 29 -59 29
-11 0 -25 -8 -30 -17z"/>
<path d="M3288 1628 c5 -5 19 -5 33 1 22 8 22 9 -9 9 -19 -1 -29 -5 -24 -10z"/>
<path d="M4126 1545 c4 -8 12 -15 20 -15 8 0 14 7 14 15 0 8 -9 15 -20 15 -13
0 -18 -5 -14 -15z"/>
<path d="M4068 1500 c-7 -11 -18 -20 -24 -20 -6 0 -14 -14 -18 -31 -9 -46 -8
-49 13 -49 13 0 21 9 26 29 4 20 11 28 21 24 8 -3 14 1 14 11 0 9 5 16 10 16
6 0 10 9 10 20 0 13 -7 20 -20 20 -11 0 -25 -9 -32 -20z"/>
<path d="M4523 1370 c-1 -40 13 -145 16 -115 2 22 28 62 37 57 3 -2 8 -1 12 2
3 3 -9 6 -26 6 -29 0 -31 2 -35 43 -3 36 -4 37 -4 7z"/>
<path d="M3517 1219 c-3 -9 -20 -20 -38 -24 -19 -4 -40 -12 -48 -19 -23 -18
-495 -24 -516 -6 -15 12 -143 21 -150 11 -3 -5 1 -12 7 -15 7 -3 -2 -3 -19 0
-19 3 -33 1 -33 -5 0 -5 -9 -13 -20 -16 -27 -8 -25 -23 3 -28 12 -2 3 -5 -20
-6 -48 -1 -58 -17 -15 -24 15 -2 5 -4 -21 -4 -26 0 -49 -2 -51 -4 -2 -2 -6
-20 -8 -39 -3 -31 0 -35 23 -38 19 -2 28 2 32 17 4 17 12 19 56 17 33 -2 59
-10 73 -22 12 -11 18 -13 13 -5 -5 10 -4 12 3 7 7 -4 12 -14 12 -22 0 -8 9
-14 21 -14 32 0 59 -19 59 -40 0 -16 7 -20 30 -20 23 0 30 5 30 19 0 11 5 21
12 23 7 3 5 13 -7 31 -22 35 -3 35 24 1 12 -15 21 -21 21 -13 0 8 11 -4 25
-26 21 -35 24 -37 25 -17 0 24 1 24 80 18 49 -3 80 -2 80 4 0 6 18 10 40 10
36 0 40 -2 40 -25 0 -16 -6 -25 -16 -25 -8 0 -22 -7 -31 -16 -9 -8 -21 -13
-29 -10 -7 3 -38 -8 -70 -25 -32 -16 -69 -29 -84 -29 -14 0 -30 -4 -35 -9 -6
-5 -32 -11 -60 -14 -27 -3 -84 -10 -125 -17 -95 -15 -201 -5 -351 35 -22 5
-27 3 -32 -17 -6 -22 -7 -22 -21 -3 -9 11 -16 27 -16 36 0 9 -11 24 -24 32
-22 15 -25 14 -49 -11 -28 -29 -26 -42 13 -59 l25 -11 -27 -12 c-16 -7 -28
-18 -28 -24 1 -22 35 -75 62 -95 25 -20 58 -20 58 0 0 5 9 9 20 9 15 0 20 -7
21 -27 1 -21 2 -23 6 -8 3 11 9 24 14 29 5 6 9 25 9 42 l0 33 88 -25 c120 -34
200 -52 206 -47 3 3 23 -5 45 -18 33 -18 44 -20 54 -10 6 6 13 16 13 22 1 5 2
14 3 19 2 17 45 29 53 16 5 -8 13 -6 25 7 14 14 14 17 3 17 -8 0 -2 7 14 15
33 18 39 19 31 5 -3 -5 -1 -10 4 -10 6 0 11 5 11 11 0 5 5 7 10 4 6 -3 10 4
10 16 0 16 5 20 20 16 10 -3 20 -2 22 2 4 9 139 96 161 104 9 4 17 11 17 17 0
5 7 10 16 10 8 0 13 4 9 9 -6 11 54 43 66 35 5 -3 9 0 9 7 0 7 3 9 7 6 3 -4
14 0 23 8 16 15 17 14 13 -12 -4 -26 -3 -26 10 -10 8 9 20 17 27 17 8 0 10 8
7 21 -8 32 3 79 19 79 8 0 14 -5 14 -12 0 -21 16 5 34 55 13 33 23 47 32 43 8
-3 14 1 14 9 0 8 5 15 10 15 6 0 10 9 10 20 0 33 -95 41 -103 9z m-77 -180 c0
-21 -3 -22 -77 -15 -42 3 -79 9 -82 12 -13 13 29 24 92 24 62 0 67 -2 67 -21z"/>
<path d="M4048 1213 c6 -2 18 -2 25 0 6 3 1 5 -13 5 -14 0 -19 -2 -12 -5z"/>
<path d="M4542 1140 c0 -14 2 -19 5 -12 2 6 2 18 0 25 -3 6 -5 1 -5 -13z"/>
<path d="M686 948 c7 -55 10 -65 20 -56 12 13 -3 108 -17 108 -6 0 -7 -22 -3
-52z"/>
<path d="M1990 916 c-12 -20 -19 -42 -17 -49 4 -9 6 -9 6 1 1 8 10 27 22 44
12 16 19 31 16 34 -2 3 -15 -11 -27 -30z"/>
<path d="M2588 923 c-40 -6 -34 -20 12 -28 22 -4 40 -10 40 -15 0 -9 99 -20
118 -12 9 3 4 13 -18 33 -32 29 -68 35 -152 22z"/>
<path d="M2505 910 c3 -5 10 -10 16 -10 5 0 9 5 9 10 0 6 -7 10 -16 10 -8 0
-12 -4 -9 -10z"/>
<path d="M2990 910 c0 -5 5 -10 10 -10 6 0 10 5 10 10 0 6 -4 10 -10 10 -5 0
-10 -4 -10 -10z"/>
<path d="M1945 680 c-4 -17 -11 -28 -16 -24 -5 3 -8 -10 -7 -28 1 -18 -2 -46
-7 -63 -8 -27 -7 -29 8 -16 10 7 17 20 17 28 0 8 7 21 15 29 16 17 21 89 6 98
-5 4 -12 -7 -16 -24z"/>
<path d="M761 664 c0 -11 3 -14 6 -6 3 7 2 16 -1 19 -3 4 -6 -2 -5 -13z"/>
<path d="M2241 638 c3 -45 -15 -93 -31 -83 -5 3 -11 1 -15 -5 -3 -5 -13 -10
-22 -10 -11 0 -14 8 -11 29 2 17 2 30 -1 29 -20 -2 -31 4 -31 17 0 8 -4 15
-10 15 -5 0 -10 -7 -10 -15 0 -8 -4 -15 -9 -15 -5 0 -13 -10 -17 -22 l-6 -21
-19 24 c-21 28 -21 28 -43 -31 -12 -33 -23 -46 -38 -47 -30 -3 -37 -13 -41
-66 -3 -31 1 -53 10 -64 10 -13 16 -15 19 -5 8 18 27 15 52 -8 14 -13 22 -16
22 -8 0 9 3 9 10 -2 9 -13 10 -13 10 0 0 12 2 13 9 1 5 -7 14 -10 20 -7 6 4 9
12 6 17 -8 12 10 12 33 0 9 -6 31 -16 48 -24 l30 -14 -8 65 c-5 35 -7 69 -4
75 2 7 5 -1 6 -18 1 -30 1 -30 13 -7 7 12 16 19 20 16 4 -4 7 0 7 8 0 9 17 26
37 38 32 19 42 21 69 11 41 -15 54 -14 54 4 0 9 9 15 25 15 14 0 25 4 25 10 0
13 -131 120 -147 120 -7 0 -13 5 -13 10 0 6 -11 10 -25 10 -24 0 -26 -3 -24
-42z m-51 -133 c0 -8 -2 -15 -4 -15 -2 0 -6 7 -10 15 -3 8 -1 15 4 15 6 0 10
-7 10 -15z"/>
<path d="M3767 666 c-8 -19 14 -66 31 -66 15 0 16 16 1 26 -6 3 -8 17 -5 30 7
27 -18 35 -27 10z"/>
<path d="M2536 645 c-3 -9 1 -18 9 -21 8 -4 15 -12 15 -19 0 -18 51 -30 60
-14 4 6 13 8 19 5 6 -4 21 -4 32 -1 31 10 7 29 -60 49 -67 20 -67 20 -75 1z"/>
<path d="M2818 623 c7 -3 16 -2 19 1 4 3 -2 6 -13 5 -11 0 -14 -3 -6 -6z"/>
<path d="M770 590 c0 -5 5 -10 10 -10 6 0 10 5 10 10 0 6 -4 10 -10 10 -5 0
-10 -4 -10 -10z"/>
<path d="M801 534 c0 -11 3 -14 6 -6 3 7 2 16 -1 19 -3 4 -6 -2 -5 -13z"/>
<path d="M3577 525 c-22 -16 -19 -48 6 -53 14 -3 17 4 17 32 0 20 -1 36 -2 36
-2 0 -11 -7 -21 -15z"/>
<path d="M1780 517 c0 -10 32 -67 41 -72 17 -11 9 42 -9 58 -17 16 -32 22 -32
14z"/>
<path d="M4563 480 c0 -25 2 -35 4 -22 2 12 2 32 0 45 -2 12 -4 2 -4 -23z"/>
<path d="M828 457 c-6 -29 1 -49 13 -41 12 7 12 51 0 58 -5 3 -11 -4 -13 -17z"/>
<path d="M1905 400 c3 -5 8 -10 11 -10 2 0 4 5 4 10 0 6 -5 10 -11 10 -5 0 -7
-4 -4 -10z"/>
<path d="M2381 368 c1 -7 5 -24 9 -38 l8 -25 1 26 c1 14 6 30 13 37 9 9 7 12
-10 12 -12 0 -22 -6 -21 -12z"/>
<path d="M1880 353 c0 -5 20 -34 45 -65 25 -32 45 -63 45 -69 0 -12 52 -6 100
11 14 4 56 16 94 26 l70 18 -54 24 c-31 13 -65 21 -80 19 -14 -3 -65 6 -115
19 -99 26 -105 27 -105 17z"/>
<path d="M2120 340 c8 -5 20 -10 25 -10 6 0 3 5 -5 10 -8 5 -19 10 -25 10 -5
0 -3 -5 5 -10z"/>
<path d="M4535 210 c-3 -5 -1 -10 4 -10 6 0 11 5 11 10 0 6 -2 10 -4 10 -3 0
-8 -4 -11 -10z"/>
<path d="M4800 80 c0 -29 4 -40 15 -40 11 0 15 11 15 40 0 29 -4 40 -15 40
-11 0 -15 -11 -15 -40z"/>
<path d="M2613 95 c0 -18 19 -15 25 3 2 7 -3 12 -10 12 -8 0 -15 -7 -15 -15z"/>
<path d="M989 73 c0 -4 -2 -16 -4 -25 -2 -10 3 -18 11 -18 16 0 19 36 4 45 -5
3 -10 3 -11 -2z"/>
<path d="M3500 50 c-13 -8 -12 -10 3 -10 9 0 17 5 17 10 0 12 -1 12 -20 0z"/>
</g>
</svg>
