<svg width="20" height="20" viewBox="0 0 20 20" fill="none" xmlns="http://www.w3.org/2000/svg">
<path d="M17.1679 8.92155L16.9479 9.08831L16.9718 9.36332C16.9906 9.57961 16.9999 9.78515 16.9999 10C16.9999 10.2151 16.9906 10.4125 16.9641 10.6153L16.9266 10.9031L17.1579 11.0785L19.0136 12.4852C19.0142 12.4857 19.0148 12.4861 19.0154 12.4866C19.2169 12.6441 19.2717 12.9187 19.146 13.1416C19.1457 13.1421 19.1454 13.1425 19.1452 13.143L17.2772 16.3695L17.2772 16.3695L17.2752 16.373C17.1508 16.5919 16.8837 16.6791 16.6593 16.5815L16.6593 16.5814L16.6548 16.5795L14.5048 15.6695L14.2494 15.5614L14.0224 15.7209C13.6741 15.9657 13.3098 16.1802 12.9297 16.3563L12.6783 16.4728L12.6438 16.7477L12.3538 19.0577L12.3535 19.0604C12.3236 19.3092 12.1067 19.5 11.8599 19.5H8.12991C7.88308 19.5 7.6662 19.3092 7.63636 19.0604L7.63602 19.0577L7.34602 16.7477L7.31151 16.4728L7.06014 16.3563C6.68002 16.1802 6.31573 15.9657 5.96738 15.7209L5.74045 15.5614L5.48502 15.6695L3.33502 16.5795L3.33501 16.5795L3.33055 16.5815C3.10609 16.6791 2.83903 16.5919 2.71464 16.373L2.71465 16.373L2.71262 16.3695L0.844637 13.143C0.844357 13.1425 0.844078 13.142 0.8438 13.1415C0.715306 12.9137 0.778001 12.6339 0.969913 12.49L0.971962 12.4885L2.83196 11.0785L3.05194 10.9117L3.02803 10.6367C3.00922 10.4204 2.99991 10.2149 2.99991 10C2.99991 9.78483 3.00925 9.57994 3.02786 9.37527L3.05296 9.09908L2.83196 8.93155L0.974429 7.52342C0.772819 7.36582 0.718064 7.09116 0.843933 6.86825L2.71296 3.62994L2.71297 3.62994L2.71464 3.627C2.83903 3.40808 3.10609 3.32095 3.33055 3.41853L3.33502 3.42045L5.48502 4.33045L5.74045 4.43856L5.96738 4.2791C6.31573 4.03431 6.68002 3.81981 7.06014 3.64366L7.31151 3.52717L7.34602 3.25228L7.63602 0.942282L7.63602 0.942283L7.63635 0.939573C7.66583 0.693872 7.87998 0.5 8.13991 0.5H11.8699C12.1167 0.5 12.3336 0.690796 12.3635 0.939573L12.3635 0.939574L12.3638 0.942282L12.6538 3.25228L12.6883 3.52717L12.9397 3.64366C13.3198 3.81981 13.6841 4.03431 14.0324 4.2791L14.2594 4.43856L14.5148 4.33045L16.6648 3.42045L16.6648 3.42048L16.6693 3.41853C16.8937 3.32095 17.1608 3.40808 17.2852 3.627L17.2852 3.62701L17.2872 3.63052L19.1552 6.857C19.1555 6.85748 19.1557 6.85795 19.156 6.85843C19.2845 7.08627 19.2218 7.36606 19.0299 7.50999L19.0279 7.51155L17.1679 8.92155ZM6.03991 10C6.03991 12.2061 7.83377 14 10.0399 14C12.2461 14 14.0399 12.2061 14.0399 10C14.0399 7.79386 12.2461 6 10.0399 6C7.83377 6 6.03991 7.79386 6.03991 10Z" fill="black" stroke="black"/>
</svg>
