<?xml version="1.0" standalone="no"?>
<!DOCTYPE svg PUBLIC "-//W3C//DTD SVG 20010904//EN"
 "http://www.w3.org/TR/2001/REC-SVG-20010904/DTD/svg10.dtd">
<svg version="1.0" xmlns="http://www.w3.org/2000/svg"
 width="258.000000pt" height="195.000000pt" viewBox="0 0 258.000000 195.000000"
 preserveAspectRatio="xMidYMid meet">

<g transform="translate(0.000000,195.000000) scale(0.100000,-0.100000)"
fill="#000000" stroke="none">
<path d="M1163 1933 c-28 -5 -83 -56 -83 -77 0 -12 11 -15 49 -15 56 2 71 -5
71 -31 0 -16 7 -18 43 -17 l42 2 -1 -37 c-1 -21 3 -35 7 -32 5 3 9 -2 9 -10 0
-9 4 -16 9 -16 34 0 49 109 24 171 -8 21 -20 39 -25 39 -5 0 -16 7 -24 15 -15
14 -69 18 -121 8z"/>
<path d="M1213 1653 c-38 -42 -38 -41 -15 -39 22 1 55 41 50 61 -2 10 -13 4
-35 -22z"/>
<path d="M1333 1625 c-3 -9 -3 -18 -1 -21 3 -3 8 4 11 16 6 23 -1 27 -10 5z"/>
<path d="M1270 1531 c0 -17 5 -31 10 -31 6 0 10 11 10 24 0 14 -4 28 -10 31
-6 4 -10 -7 -10 -24z"/>
<path d="M1551 1534 c-1 -11 2 -24 6 -28 13 -12 32 -118 32 -177 1 -56 1 -56
-26 -51 -45 8 -143 -54 -143 -91 0 -17 -5 -19 -51 -15 -28 3 -56 12 -61 19 -7
10 -8 7 -4 -11 3 -14 6 -28 6 -32 0 -12 68 -9 111 3 35 11 40 10 59 -12 11
-13 23 -37 28 -54 5 -19 15 -31 28 -31 10 -1 23 -2 29 -3 5 -1 4 -6 -3 -13
-16 -16 -15 -28 3 -28 25 0 29 -27 12 -73 -26 -70 -56 -200 -65 -280 -9 -85 4
-133 57 -211 45 -66 88 -157 96 -206 11 -68 35 -103 62 -93 16 6 73 -16 73
-28 0 -5 -24 -8 -53 -7 -40 2 -62 -3 -90 -21 -21 -13 -55 -25 -77 -28 -39 -5
-50 -16 -31 -28 8 -5 198 -9 294 -6 28 1 29 2 22 44 -9 54 -14 61 -31 46 -25
-20 -29 0 -6 31 27 36 27 46 2 62 -16 10 -20 24 -20 64 0 42 -10 72 -54 161
-30 61 -59 114 -65 117 -17 11 -13 47 13 102 31 67 42 72 56 27 24 -76 82
-189 107 -207 23 -17 32 -18 72 -8 115 27 243 66 316 97 90 39 145 53 145 37
0 -5 12 -14 28 -20 15 -5 48 -28 73 -50 26 -23 49 -38 53 -35 24 25 -24 171
-58 173 -5 0 -3 -7 4 -14 8 -11 9 -20 1 -33 -7 -13 -10 -14 -11 -4 0 8 -3 11
-7 8 -12 -13 -30 14 -25 39 3 16 9 23 19 20 7 -3 0 14 -17 39 -31 45 -45 58
-67 61 -15 3 -17 -12 -3 -21 6 -3 10 -18 10 -32 l0 -27 -20 22 c-11 12 -20 26
-20 32 0 17 -25 11 -64 -15 -20 -14 -50 -25 -67 -25 -16 0 -32 -6 -35 -13 -2
-8 -19 -14 -37 -14 -18 0 -65 -10 -106 -22 -56 -16 -76 -19 -82 -10 -9 15 -25
240 -21 293 6 68 -5 103 -38 118 -17 7 -30 19 -30 25 0 7 -6 13 -14 13 -7 0
-16 13 -19 29 -6 30 -42 50 -96 52 -17 1 -9 5 22 11 26 6 47 14 47 18 0 11
-52 31 -118 46 -43 9 -49 12 -26 13 18 1 47 7 65 15 l34 14 -40 7 c-50 8 -89
23 -62 24 29 1 20 31 -9 31 -19 0 -25 4 -21 14 8 20 -15 76 -31 76 -7 0 -11 4
-7 9 3 5 -5 20 -18 33 -13 13 -27 31 -30 39 -4 9 -6 7 -6 -7z m-11 -348 c0 -8
-5 -18 -11 -22 -6 -3 -8 -15 -6 -26 5 -18 4 -18 -16 -5 -30 20 -32 42 -5 55
31 15 38 14 38 -2z m239 -30 c-2 -2 -15 -9 -29 -15 -24 -11 -24 -11 -6 3 16
13 49 24 35 12z m36 -64 c-16 -10 -43 -23 -59 -30 -27 -12 -28 -12 -16 3 15
18 66 43 90 44 8 1 2 -7 -15 -17z m-275 -7 c11 -13 10 -14 -4 -9 -9 3 -16 10
-16 15 0 13 6 11 20 -6z m47 -11 c-3 -3 -12 -4 -19 -1 -8 3 -5 6 6 6 11 1 17
-2 13 -5z m193 -58 c0 -2 -7 -7 -16 -10 -8 -3 -12 -2 -9 4 6 10 25 14 25 6z
m630 -326 c0 -5 -5 -10 -11 -10 -5 0 -7 5 -4 10 3 6 8 10 11 10 2 0 4 -4 4
-10z m-710 -631 c-17 -14 -26 -17 -28 -9 -5 14 16 30 38 30 10 -1 7 -7 -10
-21z"/>
<path d="M1356 1477 c2 -32 8 -66 13 -76 6 -10 8 -21 5 -24 -9 -8 29 -56 44
-57 9 0 9 5 2 18 -23 42 -40 98 -40 136 0 28 -3 37 -9 27 -7 -11 -10 -9 -14
10 -3 13 -3 -2 -1 -34z"/>
<path d="M1308 1504 c-21 -32 -7 -123 23 -150 20 -18 20 -18 15 10 -3 15 -9
33 -15 40 -5 6 -11 34 -13 61 -2 28 -6 45 -10 39z"/>
<path d="M1401 1503 c0 -6 -4 -20 -7 -30 -5 -14 -4 -15 5 -7 7 7 11 20 8 30
-3 11 -5 14 -6 7z"/>
<path d="M842 1323 c2 -10 -1 -18 -7 -17 -5 1 -18 -7 -28 -18 -16 -17 -16 -19
-1 -25 9 -3 20 0 24 7 6 9 10 8 18 -6 9 -16 11 -15 25 12 14 28 14 30 -10 47
-24 18 -24 18 -21 0z"/>
<path d="M1460 1336 c0 -2 15 -9 33 -15 29 -10 30 -9 13 4 -18 14 -46 20 -46
11z"/>
<path d="M1352 1295 c-6 -14 -16 -25 -22 -25 -5 0 -10 -4 -10 -9 0 -12 30 -4
55 15 17 13 18 16 4 29 -14 14 -17 13 -27 -10z"/>
<path d="M580 1273 c0 -24 5 -43 10 -43 13 0 13 50 0 70 -7 11 -10 4 -10 -27z"/>
<path d="M645 1300 c3 -5 8 -10 11 -10 2 0 4 5 4 10 0 6 -5 10 -11 10 -5 0 -7
-4 -4 -10z"/>
<path d="M1470 1300 c0 -5 5 -10 11 -10 5 0 7 -4 4 -10 -3 -6 1 -7 9 -4 21 8
20 11 -4 24 -14 7 -20 7 -20 0z"/>
<path d="M1073 1283 c-3 -10 -12 -32 -18 -49 -12 -30 -12 -31 11 -26 14 2 24
0 24 -7 0 -6 5 -11 11 -11 6 0 9 6 6 13 -8 23 13 48 35 41 14 -4 18 -3 13 6
-4 6 -17 10 -28 9 -42 -3 -49 0 -42 21 8 25 -3 27 -12 3z"/>
<path d="M123 1262 c11 -12 13 -22 5 -35 -5 -10 -7 -26 -4 -35 5 -14 3 -13 -9
2 -10 14 -11 24 -4 37 8 16 6 19 -13 19 -19 0 -20 -2 -8 -10 11 -7 12 -10 2
-10 -9 0 -11 -7 -7 -20 4 -12 2 -20 -6 -20 -9 0 -8 -4 1 -15 7 -8 19 -15 27
-15 7 0 26 -8 40 -17 15 -10 24 -13 20 -7 -10 17 19 25 49 14 33 -13 33 -13
31 11 -1 12 -11 25 -24 30 -13 5 -23 15 -23 22 0 8 -17 26 -38 41 -44 30 -62
34 -39 8z m34 -54 c-3 -8 -6 -5 -6 6 -1 11 2 17 5 13 3 -3 4 -12 1 -19z"/>
<path d="M1220 1233 c-24 -12 -24 -13 -3 -13 12 0 25 5 28 11 11 16 2 17 -25
2z"/>
<path d="M756 1232 c-3 -6 -1 -14 5 -17 14 -9 20 -2 10 14 -6 8 -11 9 -15 3z"/>
<path d="M725 1220 c3 -5 8 -10 11 -10 2 0 4 5 4 10 0 6 -5 10 -11 10 -5 0 -7
-4 -4 -10z"/>
<path d="M1138 1213 c12 -2 30 -2 40 0 9 3 -1 5 -23 4 -22 0 -30 -2 -17 -4z"/>
<path d="M10 1200 c0 -5 7 -10 15 -10 9 0 12 -6 8 -17 -4 -14 -3 -15 6 -7 14
13 4 44 -15 44 -8 0 -14 -4 -14 -10z"/>
<path d="M1335 1190 c19 -8 73 -14 64 -6 -2 2 -22 6 -44 9 -28 5 -34 4 -20 -3z"/>
<path d="M1163 1166 c-12 -14 -108 -31 -123 -21 -5 3 -14 -4 -20 -15 -14 -27
8 -36 51 -21 18 6 47 11 65 11 18 0 36 5 39 10 3 6 15 10 26 10 22 0 24 11 7
28 -15 15 -30 15 -45 -2z"/>
<path d="M380 1155 c-10 -12 -10 -15 3 -15 25 0 47 11 41 21 -8 14 -30 11 -44
-6z"/>
<path d="M1243 1155 c0 -9 10 -15 24 -15 22 0 23 2 9 15 -8 8 -19 15 -24 15
-5 0 -9 -7 -9 -15z"/>
<path d="M690 1135 c-13 -14 -20 -31 -17 -39 5 -12 0 -16 -18 -16 -14 0 -25 5
-25 10 0 6 -11 10 -25 10 -18 0 -28 -7 -35 -25 -5 -14 -14 -25 -20 -25 -6 0
-8 -4 -5 -10 3 -6 -1 -7 -9 -4 -9 3 -16 11 -16 16 0 6 -7 8 -15 4 -20 -7 -19
8 1 25 13 10 17 10 25 -2 6 -10 9 -10 9 -1 0 6 7 12 15 12 8 0 15 7 15 15 0 8
-4 15 -10 15 -5 0 -10 -5 -10 -10 0 -6 -8 -6 -22 1 -60 31 -60 31 -50 13 7
-13 3 -22 -17 -40 -23 -20 -24 -23 -8 -29 9 -4 17 -18 17 -31 0 -28 6 -30 25
-10 10 10 24 12 49 6 19 -4 52 -4 74 0 42 7 96 42 84 54 -3 4 1 4 10 1 14 -6
16 0 11 37 -3 24 -7 44 -8 45 -1 2 -12 -8 -25 -22z m-40 -75 c21 -13 7 -22
-25 -14 -20 5 -23 9 -13 15 16 11 20 11 38 -1z"/>
<path d="M325 1140 c-4 -6 -2 -17 4 -23 15 -15 25 -2 13 19 -7 12 -11 13 -17
4z"/>
<path d="M630 1125 c-11 -13 -10 -14 4 -9 9 3 16 10 16 15 0 13 -6 11 -20 -6z"/>
<path d="M114 1095 c-3 -14 -4 -34 -1 -45 3 -11 1 -20 -5 -20 -5 0 -6 -5 -3
-10 5 -8 11 -7 21 1 8 7 14 7 14 1 0 -5 -7 -12 -15 -16 -8 -3 -15 -14 -15 -24
0 -12 -11 -24 -30 -32 -32 -13 -40 -37 -15 -46 8 -4 15 -14 16 -23 0 -12 2
-12 9 4 5 11 9 14 9 7 1 -9 10 -12 29 -8 15 2 48 7 73 11 42 5 46 8 41 30 -4
21 -8 24 -31 19 -14 -4 -30 -9 -36 -12 -19 -11 -44 -9 -49 5 -3 7 1 13 10 13
8 0 12 5 9 10 -4 7 3 9 18 6 23 -4 25 -2 22 26 -3 17 -10 36 -16 44 -7 8 -7
14 -1 14 14 0 31 -23 35 -46 5 -35 15 -41 59 -35 33 5 46 12 58 34 14 26 14
29 -5 43 -20 15 -20 16 2 12 12 -2 22 0 23 5 1 25 -2 29 -20 24 -15 -4 -20 0
-20 14 0 10 -6 19 -14 19 -14 0 -18 -8 -30 -62 -7 -32 -24 -35 -52 -10 -10 10
-27 16 -37 14 -16 -3 -17 -1 -7 18 8 15 8 20 1 16 -6 -4 -11 0 -11 8 0 26 -29
18 -36 -9z m27 -2 c0 -5 2 -16 4 -25 2 -10 -2 -21 -7 -25 -6 -3 -8 -1 -4 5 3
6 2 13 -4 17 -13 8 -13 35 0 35 6 0 10 -3 11 -7z m139 -83 c0 -5 -4 -10 -10
-10 -5 0 -10 5 -10 10 0 6 5 10 10 10 6 0 10 -4 10 -10z"/>
<path d="M943 1093 c-29 -6 -39 -33 -12 -33 11 0 18 4 15 9 -3 5 2 12 11 15 9
4 20 1 24 -6 4 -7 11 -9 14 -6 10 9 -4 28 -18 27 -7 -1 -22 -4 -34 -6z"/>
<path d="M885 1024 c-22 -7 -41 -14 -41 -14 -1 0 -5 -7 -8 -16 -6 -15 0 -16
41 -10 26 3 50 12 55 19 6 9 8 9 8 0 0 -7 7 -13 15 -13 8 0 15 5 15 11 0 5 5
7 10 4 12 -8 13 5 1 24 -7 11 -13 12 -23 3 -9 -7 -18 -8 -24 -3 -5 6 -25 4
-49 -5z"/>
<path d="M401 1011 c-15 -26 -12 -31 10 -22 11 4 14 12 9 26 -7 19 -7 19 -19
-4z"/>
<path d="M790 1010 c-13 -8 -13 -10 2 -10 9 0 20 5 23 10 8 13 -5 13 -25 0z"/>
<path d="M953 982 c-14 -2 -23 -10 -23 -21 0 -10 -9 -44 -20 -76 -11 -31 -17
-62 -14 -67 8 -12 33 22 34 45 0 9 5 17 11 17 6 0 9 7 5 15 -3 8 -2 15 3 15 7
0 34 72 28 75 -1 0 -12 -1 -24 -3z"/>
<path d="M469 973 c-22 -5 -33 -43 -13 -43 8 0 14 4 14 9 0 5 9 7 20 4 15 -4
20 0 20 16 0 20 -8 23 -41 14z"/>
<path d="M885 973 c-75 -8 -102 -22 -109 -53 -4 -21 -11 -30 -25 -30 -10 0
-21 -9 -24 -20 -6 -23 3 -26 21 -8 9 9 12 9 12 -2 0 -8 12 -20 26 -27 22 -10
26 -9 35 10 8 19 9 19 4 -5 -6 -32 10 -38 20 -8 4 11 11 18 16 14 5 -3 7 -10
4 -15 -4 -5 -2 -9 4 -9 18 0 36 77 22 93 -9 12 -7 16 9 20 12 3 20 13 20 26 0
12 -1 20 -2 20 -2 -1 -16 -4 -33 -6z m-13 -90 c-3 -16 -7 -22 -10 -15 -4 13 4
42 11 42 2 0 2 -12 -1 -27z"/>
<path d="M410 961 c0 -5 -3 -18 -7 -28 -6 -17 -5 -17 15 1 12 10 19 23 16 27
-7 12 -24 11 -24 0z"/>
<path d="M372 940 c-10 -17 -10 -20 3 -20 8 0 15 2 15 4 0 2 3 11 6 20 9 23
-9 20 -24 -4z"/>
<path d="M257 943 c-14 -13 -6 -34 16 -43 l22 -9 -22 0 c-18 -1 -23 -8 -26
-38 l-4 -38 -1 37 c-2 36 -3 37 -34 32 -82 -14 -127 -27 -122 -35 3 -5 10 -7
15 -4 9 6 13 -9 9 -30 -1 -5 4 -4 11 3 20 19 29 14 29 -15 0 -21 -3 -24 -10
-13 -5 8 -12 11 -16 7 -12 -12 4 -20 43 -24 21 -1 40 3 45 10 6 9 8 9 8 0 0
-9 16 -13 45 -13 l45 0 0 39 c0 22 5 41 12 43 9 3 8 11 -4 30 -12 18 -14 28
-6 36 6 6 7 15 4 21 -8 12 -49 15 -59 4z m-75 -109 c2 -19 0 -37 -4 -40 -4 -3
-8 13 -8 35 0 51 6 53 12 5z"/>
<path d="M508 923 c-30 -5 -31 -7 -18 -38 8 -19 9 -19 9 3 1 15 7 22 21 22 11
0 20 5 20 10 0 6 -1 9 -2 9 -2 -1 -15 -4 -30 -6z"/>
<path d="M560 920 c0 -5 5 -10 10 -10 6 0 10 5 10 10 0 6 -4 10 -10 10 -5 0
-10 -4 -10 -10z"/>
<path d="M590 920 c0 -5 7 -10 16 -10 8 0 12 5 9 10 -3 6 -10 10 -16 10 -5 0
-9 -4 -9 -10z"/>
<path d="M520 879 c0 -5 5 -7 10 -4 6 3 10 8 10 11 0 2 -4 4 -10 4 -5 0 -10
-5 -10 -11z"/>
<path d="M580 860 c0 -5 5 -10 10 -10 6 0 10 5 10 10 0 6 -4 10 -10 10 -5 0
-10 -4 -10 -10z"/>
<path d="M650 799 c0 -5 5 -7 10 -4 6 3 10 8 10 11 0 2 -4 4 -10 4 -5 0 -10
-5 -10 -11z"/>
<path d="M850 800 c0 -5 5 -10 10 -10 6 0 10 5 10 10 0 6 -4 10 -10 10 -5 0
-10 -4 -10 -10z"/>
<path d="M881 794 c0 -11 3 -14 6 -6 3 7 2 16 -1 19 -3 4 -6 -2 -5 -13z"/>
<path d="M196 748 c3 -5 17 -8 29 -6 13 2 24 0 25 -4 1 -28 -2 -51 -7 -40 -10
25 -23 11 -23 -24 0 -28 3 -35 15 -31 8 4 17 2 20 -3 4 -6 26 -10 51 -10 24 0
44 -4 44 -9 0 -4 -12 -6 -26 -3 -16 3 -30 -1 -35 -9 -6 -10 -9 -10 -9 -1 0 6
-7 12 -15 12 -20 0 -19 -6 5 -30 24 -24 30 -25 30 -6 0 8 4 17 9 20 5 4 7 -3
4 -13 -4 -16 2 -20 37 -26 23 -4 44 -4 47 -1 4 3 -1 6 -10 6 -10 0 -17 3 -18
8 0 4 -2 17 -5 29 -3 20 0 22 31 18 19 -3 40 -6 46 -7 6 -2 14 3 16 11 4 9 0
11 -16 6 -16 -5 -27 0 -42 17 -16 18 -19 19 -15 5 5 -15 2 -17 -17 -11 -12 4
-25 11 -28 17 -4 5 -11 1 -18 -9 -9 -17 -10 -15 -11 12 0 17 -3 46 -6 63 -6
31 -8 31 -60 30 -29 -1 -51 -6 -48 -11z"/>
<path d="M847 754 c-3 -4 -1 -16 5 -27 11 -21 11 -21 20 2 5 13 6 26 3 29 -3
3 -5 -1 -5 -9 0 -11 -2 -11 -8 -1 -5 7 -11 9 -15 6z"/>
<path d="M450 660 c0 -5 5 -10 11 -10 5 0 7 5 4 10 -3 6 -8 10 -11 10 -2 0 -4
-4 -4 -10z"/>
<path d="M310 550 c0 -5 7 -10 16 -10 8 0 12 5 9 10 -3 6 -10 10 -16 10 -5 0
-9 -4 -9 -10z"/>
<path d="M771 484 c14 -17 39 -18 39 -1 0 6 -11 13 -25 13 -21 2 -24 -1 -14
-12z"/>
<path d="M618 473 c7 -3 16 -2 19 1 4 3 -2 6 -13 5 -11 0 -14 -3 -6 -6z"/>
<path d="M860 477 c0 -5 95 -76 120 -90 8 -5 -3 7 -25 26 -40 36 -95 72 -95
64z"/>
<path d="M535 460 c-13 -5 -14 -9 -5 -9 8 0 24 4 35 9 13 5 14 9 5 9 -8 0 -24
-4 -35 -9z"/>
<path d="M398 423 c7 -3 16 -2 19 1 4 3 -2 6 -13 5 -11 0 -14 -3 -6 -6z"/>
<path d="M800 416 c0 -29 -51 -46 -205 -68 -87 -12 -153 -24 -147 -26 6 -2 77
6 157 17 l146 21 22 -26 c20 -23 25 -24 49 -14 24 12 31 8 97 -44 39 -32 70
-51 69 -44 -2 7 2 12 8 11 7 -1 10 6 7 17 -6 24 -30 27 -35 4 -2 -12 -17 -3
-59 33 -32 26 -59 56 -62 66 -3 10 -14 21 -25 24 -14 3 -18 11 -15 24 3 10 3
19 -1 19 -3 0 -6 -6 -6 -14z"/>
<path d="M358 413 c7 -3 16 -2 19 1 4 3 -2 6 -13 5 -11 0 -14 -3 -6 -6z"/>
<path d="M310 400 c0 -5 7 -7 15 -4 8 4 15 8 15 10 0 2 -7 4 -15 4 -8 0 -15
-4 -15 -10z"/>
<path d="M988 353 c-10 -2 -18 -9 -18 -15 0 -6 10 -8 24 -4 13 3 26 2 28 -4 2
-5 12 -11 23 -13 11 -1 27 -7 35 -12 13 -7 13 -6 2 7 -7 9 -24 19 -37 22 -14
4 -25 11 -25 16 0 10 -3 11 -32 3z"/>
<path d="M345 315 c-5 -2 -27 -6 -49 -10 -21 -3 -36 -8 -34 -10 2 -2 42 2 88
9 54 9 70 14 45 14 -22 0 -44 -1 -50 -3z"/>
<path d="M256 251 c-3 -5 1 -24 10 -42 9 -20 13 -25 10 -12 -2 13 0 26 5 29 5
3 9 0 9 -6 0 -6 4 -8 10 -5 7 4 7 -3 0 -20 -6 -15 -8 -30 -6 -34 10 -15 -34
-4 -52 13 -18 15 -20 15 -26 1 -3 -9 0 -24 7 -33 13 -19 53 -30 42 -13 -3 6
-4 11 -1 11 3 0 10 -10 17 -21 9 -17 8 -20 -3 -14 -10 6 -11 5 0 -6 15 -16 16
-33 2 -24 -6 4 -9 1 -8 -7 2 -7 -3 -12 -10 -10 -8 1 -11 -2 -7 -8 3 -5 0 -10
-7 -10 -7 0 -24 16 -37 35 -26 39 -42 39 -22 1 16 -29 54 -51 75 -43 8 3 22
18 32 32 13 20 15 31 6 49 -9 20 -7 27 9 42 23 21 24 52 3 82 -15 22 -48 30
-58 13z"/>
<path d="M1023 223 c-27 -5 -30 -18 -6 -27 10 -4 14 -4 10 0 -4 4 1 13 11 20
9 7 15 13 12 12 -3 0 -15 -3 -27 -5z"/>
<path d="M170 186 c0 -9 30 -14 35 -6 4 6 -3 10 -14 10 -12 0 -21 -2 -21 -4z"/>
<path d="M1000 148 c0 -5 13 -8 29 -8 16 0 31 -6 34 -14 3 -8 16 -16 29 -18
24 -3 38 -42 21 -59 -19 -19 -55 -19 -60 -1 -2 10 -13 23 -24 30 -17 11 -19 9
-19 -12 0 -28 33 -56 65 -56 12 0 32 11 44 24 32 33 25 76 -14 96 -16 8 -32
17 -35 20 -8 8 -70 6 -70 -2z"/>
</g>
</svg>
